<?xml version="1.0" encoding="UTF-8"?>
<svg role="img" version="1.1" viewBox="0 0 290 70" xmlns="http://www.w3.org/2000/svg">
<g transform="translate(-10.41 .30486)">
<g transform="translate(34.546 45.188)">
<circle cx="20.035" cy="-5.6665" r="28.542" color="#ffffff" dominant-baseline="auto" fill="none" opacity=".5" stroke="#9c9a92" stroke-width=".71354px"/>
<ellipse cx="20.035" cy="-5.6665" rx="28.542" ry="7.1354" color="#ffffff" dominant-baseline="auto" fill="none" opacity=".15" stroke="#9c9a92" stroke-width=".49948px"/>
<ellipse cx="20.035" cy="-5.6665" rx="7.1354" ry="28.542" color="#ffffff" dominant-baseline="auto" fill="none" opacity=".15" stroke="#9c9a92" stroke-width=".49948px"/>
<g transform="matrix(.71354 0 0 .71354 20.035 -5.6665)" color="#ffffff" dominant-baseline="auto" fill="#f0a06b">
<path d="m-36.214-0.11525 7.7482-15.687h1.7965l-7.7382 15.687zm17.313-10.077v-0.72263h1.8467v3.292h-1.8467v-0.70256q-0.39143-0.53194-1.0237-0.80293-0.62227-0.28102-1.4051-0.28102-0.86314 0-1.365 0.39143-0.50183 0.39143-0.50183 1.0037 0 0.70256 0.59216 1.0639 0.6022 0.35128 1.7464 0.35128h0.66241v1.4854h-0.66241q-1.4954 0-2.1579 0.46168-0.65238 0.46168-0.65238 1.1843 0 0.76278 0.59216 1.1944 0.6022 0.43157 1.6259 0.43157 2.2783 0 3.2418-2.188l1.6259 0.78285q-0.55201 1.5456-1.8367 2.3686-1.2847 0.823-3.031 0.823-1.8467 0-3.1013-0.84307t-1.2546-2.4489q0-0.94344 0.64234-1.636 0.65238-0.70256 1.7564-0.97355-1.7263-0.68249-1.7263-2.198 0-0.84307 0.49179-1.4954 0.50183-0.66241 1.3148-1.0338 0.823-0.37135 1.7363-0.37135 1.5958 0 2.6898 0.86315zm3.1013 10.077 7.7482-15.687h1.7965l-7.7382 15.687z" aria-label="/ɛ/"/>
<g aria-label="/t/">
<path d="m-1.3289-14.768 7.7482-15.687h1.7965l-7.7382 15.687z"/>
<path d="m14.398-25.567v1.8568h-1.927v5.5302q0 0.86314 0.18066 1.1241 0.1907 0.25091 0.64234 0.25091 0.55201 0 1.104-0.1907v1.8768q-0.96351 0.28102-1.5557 0.28102-1.3048 0-1.8768-0.65238-0.57208-0.66241-0.57208-2.2582v-5.9617h-1.375v-1.8568h1.375v-1.5958l2.0776-1.8969v3.4927z"/>
<path d="m15.141-14.768 7.7482-15.687h1.7965l-7.7382 15.687z"/>
</g>
<g aria-label="/ʃ/">
<path d="m-23.951 26.689 7.7482-15.687h1.7965l-7.7382 15.687z"/>
<path d="m-12.148 15.277q0-1.9371 0.40146-2.6998 0.4115-0.77282 1.2144-1.1442 0.81296-0.37135 2.1478-0.37135 0.34124 0 0.6323 0.02007t0.60219 0.08029v1.7664q-0.25091-0.03011-0.54197-0.04015-0.28102-0.02007-0.47172-0.02007-1.104 0-1.5055 0.4115-0.40146 0.4115-0.40146 1.917v11.984q0 1.9371-0.4115 2.6998-0.40146 0.77282-1.2144 1.1442-0.80292 0.37135-2.1378 0.37135-0.34124 0-0.6323-0.02007t-0.6022-0.09033v-1.7664q0.25092 0.03011 0.54198 0.04015 0.28102 0.02007 0.47172 0.02007 1.1241 0 1.5155-0.43157 0.39143-0.42154 0.39143-1.8869z"/>
<path d="m-7.8322 26.689 7.7482-15.687h1.7965l-7.7382 15.687z"/>
</g>
<path d="m5.6779 11.707 7.7482-15.687h1.7965l-7.7382 15.687zm19.722-0.25091h-1.8066v-6.4836q0-1.9471-0.95348-2.5292-0.53194-0.32117-1.2646-0.32117-2.8303 0-2.8303 3.5128v6.4033q0 1.9471-0.5219 2.74-0.66241 1.0037-2.1679 1.0037-0.73267 0-1.4152-0.19069l0.34124-1.5356q0.54198 0.14051 0.85311 0.14051 0.55201 0 0.823-0.38139 0.28102-0.37135 0.28102-1.8467v-11.171h1.6259v1.5155q1.1743-1.7564 3.3924-1.7564 2.0876 0 2.9809 1.2546 0.40146 0.56205 0.56205 1.3349 0.10037 0.49179 0.10037 1.7564zm1.4754 0.25091 7.7482-15.687h1.7965l-7.7382 15.687z" aria-label="/ɲ/"/>
</g>
<g transform="translate(8.4333,-17.268)" color="#ffffff" dominant-baseline="auto" fill="#6f8ff0">
<polygon transform="matrix(.78757 0 0 .78757 37.954 -19.574)" points="2.2 -2.2 10 0 2.2 2.2 0 10 -2.2 2.2 -10 0 -2.2 -2.2 0 -10" color="#ffffff" dominant-baseline="auto"/>
<polygon transform="matrix(.6 0 0 .6 -19.568 -10.849)" points="0 -10 2.2 -2.2 10 0 2.2 2.2 0 10 -2.2 2.2 -10 0 -2.2 -2.2" color="#ffffff" dominant-baseline="auto"/>
<polygon transform="matrix(.5 0 0 .5 38 36)" points="-2.2 -2.2 0 -10 2.2 -2.2 10 0 2.2 2.2 0 10 -2.2 2.2 -10 0" color="#ffffff" dominant-baseline="auto"/>
</g>
</g>
<g transform="translate(-189.17 -51.852)" color="#ffffff" stroke-width="1px" aria-label="DiscoPhon">
<path d="m284.16 101.88v-31.664h6.6445q4.7783 0 7.5469 0.94336 2.9736 0.92285 5.3936 3.1377 4.9014 4.4707 4.9014 11.751 0 7.3008-5.1064 11.812-2.5635 2.2559-5.373 3.1377-2.625 0.88184-7.4443 0.88184zm4.7783-4.4912h2.1533q3.2197 0 5.3525-0.67676 2.1328-0.71777 3.8555-2.2764 3.5274-3.2197 3.5274-8.3877 0-5.209-3.4863-8.4492-3.1377-2.8916-9.249-2.8916h-2.1533zm29.449-15.483v19.975h-4.6142v-19.975zm-5.3115-8.3057q0-1.21 0.88184-2.0918 0.88183-0.88184 2.1123-0.88184 1.251 0 2.1328 0.88184 0.88184 0.86133 0.88184 2.1123 0 1.251-0.88184 2.1328-0.86132 0.88184-2.1123 0.88184t-2.1328-0.88184q-0.88184-0.88184-0.88184-2.1533zm22.764 11.71-3.8144 2.0303q-0.90234-1.8457-2.2354-1.8457-0.63574 0-1.0869 0.43066-0.45117 0.41016-0.45117 1.0664 0 1.1484 2.666 2.2764 3.6709 1.5791 4.9424 2.9121t1.2715 3.5889q0 2.8916-2.1328 4.8398-2.0713 1.8457-5.0039 1.8457-5.0244 0-7.1162-4.9014l3.9375-1.8252q0.82031 1.4355 1.251 1.8252 0.84082 0.7793 2.0098 0.7793 2.3379 0 2.3379-2.1328 0-1.2305-1.8047-2.2969-0.69726-0.34863-1.3945-0.67676t-1.415-0.67676q-2.0098-0.98438-2.8301-1.9688-1.0459-1.251-1.0459-3.2197 0-2.6045 1.7842-4.3066 1.8252-1.7021 4.4297-1.7021 3.835 0 5.7012 3.958zm20.98-2.543v6.1318q-1.5791-1.9277-2.8301-2.6455-1.2305-0.73828-2.8916-0.73828-2.6045 0-4.3272 1.8252t-1.7227 4.5732q0 2.8096 1.6611 4.6143 1.6816 1.8047 4.2861 1.8047 1.6611 0 2.9326-0.71777 1.2305-0.69726 2.8916-2.707v6.0908q-2.8096 1.4561-5.6192 1.4561-4.6348 0-7.752-2.9941-3.1172-3.0146-3.1172-7.4854t3.1582-7.5469q3.1582-3.0762 7.752-3.0762 2.9531 0 5.5781 1.415zm3.5273 8.9824q0-4.3271 3.0967-7.3623t7.5469-3.0352q4.4707 0 7.5879 3.0557 3.0762 3.0557 3.0762 7.5059 0 4.4912-3.0967 7.5264-3.1172 3.0147-7.6494 3.0147-4.4912 0-7.5264-3.0762-3.0352-3.0352-3.0352-7.6289zm4.7168 0.08203q0 2.9941 1.5996 4.7373 1.6406 1.7637 4.3271 1.7637 2.707 0 4.3272-1.7432 1.6201-1.7432 1.6201-4.6553t-1.6201-4.6553q-1.6406-1.7637-4.3272-1.7637-2.6455 0-4.2861 1.7637t-1.6406 4.5527z" fill="#6f8ff0"/>
<path d="m392.19 89.026v12.858h-4.7783v-31.664h5.4141q3.9785 0 6.0088 0.55371 2.0508 0.55371 3.6094 2.0918 2.7275 2.666 2.7275 6.7266 0 4.3477-2.9121 6.8906t-7.8545 2.543zm0-4.4297h1.7842q6.583 0 6.583-5.0654 0-4.9014-6.7881-4.9014h-1.5791zm17.021-17.35h4.6142v16.324q2.4609-2.2148 5.4346-2.2148 3.3838 0 5.4141 2.1943 1.7226 1.9072 1.7226 6.0908v12.243h-4.6142v-11.813q0-2.3994-0.86133-3.4658-0.84082-1.0869-2.7275-1.0869-2.4199 0-3.4043 1.4971-0.96387 1.5176-0.96387 5.209v9.6592h-4.6142zm22.087 24.507q0-4.3271 3.0967-7.3623t7.5469-3.0352q4.4707 0 7.5879 3.0557 3.0762 3.0557 3.0762 7.5059 0 4.4912-3.0967 7.5264-3.1172 3.0147-7.6494 3.0147-4.4912 0-7.5264-3.0762-3.0352-3.0352-3.0352-7.6289zm4.7168 0.08203q0 2.9941 1.5996 4.7373 1.6406 1.7637 4.3272 1.7637 2.707 0 4.3271-1.7432t1.6201-4.6553-1.6201-4.6553q-1.6406-1.7637-4.3271-1.7637-2.6455 0-4.2861 1.7637t-1.6406 4.5527zm21.472-9.9258h4.6348v1.8457q2.4199-2.3994 5.4551-2.3994 3.4863 0 5.4346 2.1943 1.6816 1.8662 1.6816 6.0908v12.243h-4.6348v-11.156q0-2.9531-0.82032-4.0811-0.7998-1.1484-2.9121-1.1484-2.2969 0-3.2607 1.5176-0.94336 1.4971-0.94336 5.2295v9.6387h-4.6348z" fill="#f0a06b"/>
</g>
</g>
</svg>
