<?xml version="1.0" encoding="UTF-8"?>
<svg role="img" version="1.1" viewBox="0 0 70 70" xmlns="http://www.w3.org/2000/svg" xmlns:cc="http://creativecommons.org/ns#" xmlns:dc="http://purl.org/dc/elements/1.1/" xmlns:rdf="http://www.w3.org/1999/02/22-rdf-syntax-ns#">
<g transform="translate(18.052 45.259)" color="#ffffff" dominant-baseline="auto">
<path d="m49.964-10.056a32.989 32.989 0 0 1-32.989 32.989 32.989 32.989 0 0 1-32.989-32.989 32.989 32.989 0 0 1 32.989-32.989 32.989 32.989 0 0 1 32.989 32.989z" fill="none" opacity=".75" stroke="#9c9a92" stroke-width="1.934"/>
<g transform="matrix(.77327 0 0 .77327 19.914 4.6814)" color="#ffffff" dominant-baseline="auto" fill="#f0a06b">
<path transform="scale(.98714 1.013)" d="m-49.269 2.8584 23.485-47.548h5.4453l-23.454 47.548zm52.476-30.542v-2.1903h5.5974v9.978h-5.5974v-2.1294q-1.1864-1.6123-3.1029-2.4337-1.8861-0.85178-4.2589-0.85178-2.6162 0-4.1372 1.1864-1.521 1.1864-1.521 3.0421 0 2.1294 1.7948 3.2246 1.8252 1.0647 5.2932 1.0647h2.0078v4.5023h-2.0078q-4.5327 0-6.5405 1.3994-1.9773 1.3994-1.9773 3.5896 0 2.312 1.7948 3.6201 1.8252 1.3081 4.9282 1.3081 6.9055 0 9.8259-6.6317l4.9282 2.3728q-1.6731 4.6848-5.567 7.1793-3.8939 2.4945-9.1871 2.4945-5.5974 0-9.4-2.5553-3.8026-2.5553-3.8026-7.4227 0-2.8595 1.9469-4.9586 1.9773-2.1294 5.3236-2.9508-5.2324-2.0686-5.2324-6.6621 0-2.5553 1.4906-4.5327 1.521-2.0078 3.9851-3.1333 2.4945-1.1256 5.2628-1.1256 4.8369 0 8.1527 2.6162zm9.4 30.542 23.485-47.548h5.4453l-23.454 47.548z" stroke-width="1.0419px" aria-label="/ɛ/"/>
</g>
<g transform="matrix(1.6107 0 0 1.6107 -24.809 -.80098)" color="#ffffff" dominant-baseline="auto" fill="#f0a06b">
<polygon transform="matrix(.78757 0 0 .78757 37.954 -19.574)" points="0 10 -2.2 2.2 -10 0 -2.2 -2.2 0 -10 2.2 -2.2 10 0 2.2 2.2" color="#ffffff" dominant-baseline="auto" fill="#6f8ff0"/>
</g>
<g transform="matrix(1.6307 0 0 1.6307 -62.97 43.499)" color="#ffffff" dominant-baseline="auto" fill="#f0a06b">
<polygon transform="matrix(.78757 0 0 .78757 37.954 -19.574)" points="10 0 2.2 2.2 0 10 -2.2 2.2 -10 0 -2.2 -2.2 0 -10 2.2 -2.2" color="#ffffff" dominant-baseline="auto" fill="#6f8ff0"/>
</g>
</g>
</svg>
