<?xml version="1.0" encoding="utf-8" standalone="no"?>
<!DOCTYPE svg PUBLIC "-//W3C//DTD SVG 1.1//EN"
  "http://www.w3.org/Graphics/SVG/1.1/DTD/svg11.dtd">
<svg xmlns:xlink="http://www.w3.org/1999/xlink" width="720pt" height="108pt" viewBox="0 0 720 108" xmlns="http://www.w3.org/2000/svg" version="1.1">
 <metadata>
  <rdf:RDF xmlns:dc="http://purl.org/dc/elements/1.1/" xmlns:cc="http://creativecommons.org/ns#" xmlns:rdf="http://www.w3.org/1999/02/22-rdf-syntax-ns#">
   <cc:Work>
    <dc:type rdf:resource="http://purl.org/dc/dcmitype/StillImage"/>
    <dc:date>2026-01-29T11:01:40.620294</dc:date>
    <dc:format>image/svg+xml</dc:format>
    <dc:creator>
     <cc:Agent>
      <dc:title>Matplotlib v3.10.8, https://matplotlib.org/</dc:title>
     </cc:Agent>
    </dc:creator>
   </cc:Work>
  </rdf:RDF>
 </metadata>
 <defs>
  <style type="text/css">*{stroke-linejoin: round; stroke-linecap: butt}</style>
 </defs>
 <g id="figure_1">
  <g id="patch_1">
   <path d="M 0 108 
L 720 108 
L 720 0 
L 0 0 
z
" style="fill: #ffffff"/>
  </g>
  <g id="axes_1">
   <g id="patch_2">
    <path d="M 16.678365 74.64351 
L 716.99976 74.64351 
L 716.99976 3.00024 
L 16.678365 3.00024 
z
" style="fill: #ffffff"/>
   </g>
   <g id="patch_3">
    <path d="M 96.814644 71.386998 
L 110.751388 71.386998 
L 110.751388 6.256752 
L 96.814644 6.256752 
z
" clip-path="url(#p153c3bfc19)" style="fill: #2ca02c; opacity: 0.2; stroke: #2ca02c; stroke-linejoin: miter"/>
   </g>
   <g id="patch_4">
    <path d="M 114.235574 71.386998 
L 126.430225 71.386998 
L 126.430225 6.256752 
L 114.235574 6.256752 
z
" clip-path="url(#p153c3bfc19)" style="fill: url(#h4c83ccf1ec); opacity: 0.2; stroke: #d62728; stroke-linejoin: miter"/>
   </g>
   <g id="patch_5">
    <path d="M 126.430225 71.386998 
L 136.882784 71.386998 
L 136.882784 6.256752 
L 126.430225 6.256752 
z
" clip-path="url(#p153c3bfc19)" style="fill: #2ca02c; opacity: 0.2; stroke: #2ca02c; stroke-linejoin: miter"/>
   </g>
   <g id="patch_6">
    <path d="M 136.882784 71.386998 
L 149.077435 71.386998 
L 149.077435 6.256752 
L 136.882784 6.256752 
z
" clip-path="url(#p153c3bfc19)" style="fill: url(#h4c83ccf1ec); opacity: 0.2; stroke: #d62728; stroke-linejoin: miter"/>
   </g>
   <g id="patch_7">
    <path d="M 149.077435 71.386998 
L 163.014179 71.386998 
L 163.014179 6.256752 
L 149.077435 6.256752 
z
" clip-path="url(#p153c3bfc19)" style="fill: #2ca02c; opacity: 0.2; stroke: #2ca02c; stroke-linejoin: miter"/>
   </g>
   <g id="patch_8">
    <path d="M 169.982551 71.386998 
L 183.919295 71.386998 
L 183.919295 6.256752 
L 169.982551 6.256752 
z
" clip-path="url(#p153c3bfc19)" style="fill: #2ca02c; opacity: 0.2; stroke: #2ca02c; stroke-linejoin: miter"/>
   </g>
   <g id="patch_9">
    <path d="M 190.887667 71.386998 
L 204.824411 71.386998 
L 204.824411 6.256752 
L 190.887667 6.256752 
z
" clip-path="url(#p153c3bfc19)" style="fill: #2ca02c; opacity: 0.2; stroke: #2ca02c; stroke-linejoin: miter"/>
   </g>
   <g id="patch_10">
    <path d="M 229.213714 71.386998 
L 243.150458 71.386998 
L 243.150458 6.256752 
L 229.213714 6.256752 
z
" clip-path="url(#p153c3bfc19)" style="fill: #2ca02c; opacity: 0.2; stroke: #2ca02c; stroke-linejoin: miter"/>
   </g>
   <g id="patch_11">
    <path d="M 271.023946 71.386998 
L 284.96069 71.386998 
L 284.96069 6.256752 
L 271.023946 6.256752 
z
" clip-path="url(#p153c3bfc19)" style="fill: #2ca02c; opacity: 0.2; stroke: #2ca02c; stroke-linejoin: miter"/>
   </g>
   <g id="patch_12">
    <path d="M 291.929063 71.386998 
L 305.865807 71.386998 
L 305.865807 6.256752 
L 291.929063 6.256752 
z
" clip-path="url(#p153c3bfc19)" style="fill: #2ca02c; opacity: 0.2; stroke: #2ca02c; stroke-linejoin: miter"/>
   </g>
   <g id="patch_13">
    <path d="M 326.770923 71.386998 
L 338.965574 71.386998 
L 338.965574 6.256752 
L 326.770923 6.256752 
z
" clip-path="url(#p153c3bfc19)" style="fill: #2ca02c; opacity: 0.2; stroke: #2ca02c; stroke-linejoin: miter"/>
   </g>
   <g id="patch_14">
    <path d="M 338.965574 71.386998 
L 351.160225 71.386998 
L 351.160225 6.256752 
L 338.965574 6.256752 
z
" clip-path="url(#p153c3bfc19)" style="fill: #2ca02c; opacity: 0.2; stroke: #2ca02c; stroke-linejoin: miter"/>
   </g>
   <g id="patch_15">
    <path d="M 351.160225 71.386998 
L 365.096969 71.386998 
L 365.096969 6.256752 
L 351.160225 6.256752 
z
" clip-path="url(#p153c3bfc19)" style="fill: #2ca02c; opacity: 0.2; stroke: #2ca02c; stroke-linejoin: miter"/>
   </g>
   <g id="patch_16">
    <path d="M 368.581156 71.386998 
L 382.5179 71.386998 
L 382.5179 6.256752 
L 368.581156 6.256752 
z
" clip-path="url(#p153c3bfc19)" style="fill: #2ca02c; opacity: 0.2; stroke: #2ca02c; stroke-linejoin: miter"/>
   </g>
   <g id="patch_17">
    <path d="M 392.970458 71.386998 
L 406.907202 71.386998 
L 406.907202 6.256752 
L 392.970458 6.256752 
z
" clip-path="url(#p153c3bfc19)" style="fill: #2ca02c; opacity: 0.2; stroke: #2ca02c; stroke-linejoin: miter"/>
   </g>
   <g id="patch_18">
    <path d="M 448.717435 71.386998 
L 462.654179 71.386998 
L 462.654179 6.256752 
L 448.717435 6.256752 
z
" clip-path="url(#p153c3bfc19)" style="fill: #2ca02c; opacity: 0.2; stroke: #2ca02c; stroke-linejoin: miter"/>
   </g>
   <g id="patch_19">
    <path d="M 466.138365 71.386998 
L 480.075109 71.386998 
L 480.075109 6.256752 
L 466.138365 6.256752 
z
" clip-path="url(#p153c3bfc19)" style="fill: #2ca02c; opacity: 0.2; stroke: #2ca02c; stroke-linejoin: miter"/>
   </g>
   <g id="patch_20">
    <path d="M 490.527667 71.386998 
L 504.464411 71.386998 
L 504.464411 6.256752 
L 490.527667 6.256752 
z
" clip-path="url(#p153c3bfc19)" style="fill: #2ca02c; opacity: 0.2; stroke: #2ca02c; stroke-linejoin: miter"/>
   </g>
   <g id="patch_21">
    <path d="M 528.853714 71.386998 
L 542.790458 71.386998 
L 542.790458 6.256752 
L 528.853714 6.256752 
z
" clip-path="url(#p153c3bfc19)" style="fill: #2ca02c; opacity: 0.2; stroke: #2ca02c; stroke-linejoin: miter"/>
   </g>
   <g id="patch_22">
    <path d="M 556.727202 71.386998 
L 570.663946 71.386998 
L 570.663946 6.256752 
L 556.727202 6.256752 
z
" clip-path="url(#p153c3bfc19)" style="fill: #2ca02c; opacity: 0.2; stroke: #2ca02c; stroke-linejoin: miter"/>
   </g>
   <g id="patch_23">
    <path d="M 643.831853 71.386998 
L 657.768597 71.386998 
L 657.768597 6.256752 
L 643.831853 6.256752 
z
" clip-path="url(#p153c3bfc19)" style="fill: url(#h4c83ccf1ec); opacity: 0.2; stroke: #d62728; stroke-linejoin: miter"/>
   </g>
   <g id="matplotlib.axis_1">
    <g id="xtick_1">
     <g id="line2d_1">
      <defs>
       <path id="m92d5042842" d="M 0 0 
L 0 3.5 
" style="stroke: #000000; stroke-width: 0.8"/>
      </defs>
      <g>
       <use xlink:href="#m92d5042842" x="34.099295" y="74.64351" style="stroke: #000000; stroke-width: 0.8"/>
      </g>
     </g>
     <g id="text_1">
      <!-- 0.25 -->
      <g transform="translate(22.966483 89.241948) scale(0.1 -0.1)">
       <defs>
        <path id="DejaVuSans-30" d="M 2034 4250 
Q 1547 4250 1301 3770 
Q 1056 3291 1056 2328 
Q 1056 1369 1301 889 
Q 1547 409 2034 409 
Q 2525 409 2770 889 
Q 3016 1369 3016 2328 
Q 3016 3291 2770 3770 
Q 2525 4250 2034 4250 
z
M 2034 4750 
Q 2819 4750 3233 4129 
Q 3647 3509 3647 2328 
Q 3647 1150 3233 529 
Q 2819 -91 2034 -91 
Q 1250 -91 836 529 
Q 422 1150 422 2328 
Q 422 3509 836 4129 
Q 1250 4750 2034 4750 
z
" transform="scale(0.015625)"/>
        <path id="DejaVuSans-2e" d="M 684 794 
L 1344 794 
L 1344 0 
L 684 0 
L 684 794 
z
" transform="scale(0.015625)"/>
        <path id="DejaVuSans-32" d="M 1228 531 
L 3431 531 
L 3431 0 
L 469 0 
L 469 531 
Q 828 903 1448 1529 
Q 2069 2156 2228 2338 
Q 2531 2678 2651 2914 
Q 2772 3150 2772 3378 
Q 2772 3750 2511 3984 
Q 2250 4219 1831 4219 
Q 1534 4219 1204 4116 
Q 875 4013 500 3803 
L 500 4441 
Q 881 4594 1212 4672 
Q 1544 4750 1819 4750 
Q 2544 4750 2975 4387 
Q 3406 4025 3406 3419 
Q 3406 3131 3298 2873 
Q 3191 2616 2906 2266 
Q 2828 2175 2409 1742 
Q 1991 1309 1228 531 
z
" transform="scale(0.015625)"/>
        <path id="DejaVuSans-35" d="M 691 4666 
L 3169 4666 
L 3169 4134 
L 1269 4134 
L 1269 2991 
Q 1406 3038 1543 3061 
Q 1681 3084 1819 3084 
Q 2600 3084 3056 2656 
Q 3513 2228 3513 1497 
Q 3513 744 3044 326 
Q 2575 -91 1722 -91 
Q 1428 -91 1123 -41 
Q 819 9 494 109 
L 494 744 
Q 775 591 1075 516 
Q 1375 441 1709 441 
Q 2250 441 2565 725 
Q 2881 1009 2881 1497 
Q 2881 1984 2565 2268 
Q 2250 2553 1709 2553 
Q 1456 2553 1204 2497 
Q 953 2441 691 2322 
L 691 4666 
z
" transform="scale(0.015625)"/>
       </defs>
       <use xlink:href="#DejaVuSans-30"/>
       <use xlink:href="#DejaVuSans-2e" transform="translate(63.623047 0)"/>
       <use xlink:href="#DejaVuSans-32" transform="translate(95.410156 0)"/>
       <use xlink:href="#DejaVuSans-35" transform="translate(159.033203 0)"/>
      </g>
     </g>
    </g>
    <g id="xtick_2">
     <g id="line2d_2">
      <g>
       <use xlink:href="#m92d5042842" x="121.203946" y="74.64351" style="stroke: #000000; stroke-width: 0.8"/>
      </g>
     </g>
     <g id="text_2">
      <!-- 0.50 -->
      <g transform="translate(110.071134 89.241948) scale(0.1 -0.1)">
       <use xlink:href="#DejaVuSans-30"/>
       <use xlink:href="#DejaVuSans-2e" transform="translate(63.623047 0)"/>
       <use xlink:href="#DejaVuSans-35" transform="translate(95.410156 0)"/>
       <use xlink:href="#DejaVuSans-30" transform="translate(159.033203 0)"/>
      </g>
     </g>
    </g>
    <g id="xtick_3">
     <g id="line2d_3">
      <g>
       <use xlink:href="#m92d5042842" x="208.308597" y="74.64351" style="stroke: #000000; stroke-width: 0.8"/>
      </g>
     </g>
     <g id="text_3">
      <!-- 0.75 -->
      <g transform="translate(197.175785 89.241948) scale(0.1 -0.1)">
       <defs>
        <path id="DejaVuSans-37" d="M 525 4666 
L 3525 4666 
L 3525 4397 
L 1831 0 
L 1172 0 
L 2766 4134 
L 525 4134 
L 525 4666 
z
" transform="scale(0.015625)"/>
       </defs>
       <use xlink:href="#DejaVuSans-30"/>
       <use xlink:href="#DejaVuSans-2e" transform="translate(63.623047 0)"/>
       <use xlink:href="#DejaVuSans-37" transform="translate(95.410156 0)"/>
       <use xlink:href="#DejaVuSans-35" transform="translate(159.033203 0)"/>
      </g>
     </g>
    </g>
    <g id="xtick_4">
     <g id="line2d_4">
      <g>
       <use xlink:href="#m92d5042842" x="295.413249" y="74.64351" style="stroke: #000000; stroke-width: 0.8"/>
      </g>
     </g>
     <g id="text_4">
      <!-- 1.00 -->
      <g transform="translate(284.280436 89.241948) scale(0.1 -0.1)">
       <defs>
        <path id="DejaVuSans-31" d="M 794 531 
L 1825 531 
L 1825 4091 
L 703 3866 
L 703 4441 
L 1819 4666 
L 2450 4666 
L 2450 531 
L 3481 531 
L 3481 0 
L 794 0 
L 794 531 
z
" transform="scale(0.015625)"/>
       </defs>
       <use xlink:href="#DejaVuSans-31"/>
       <use xlink:href="#DejaVuSans-2e" transform="translate(63.623047 0)"/>
       <use xlink:href="#DejaVuSans-30" transform="translate(95.410156 0)"/>
       <use xlink:href="#DejaVuSans-30" transform="translate(159.033203 0)"/>
      </g>
     </g>
    </g>
    <g id="xtick_5">
     <g id="line2d_5">
      <g>
       <use xlink:href="#m92d5042842" x="382.5179" y="74.64351" style="stroke: #000000; stroke-width: 0.8"/>
      </g>
     </g>
     <g id="text_5">
      <!-- 1.25 -->
      <g transform="translate(371.385087 89.241948) scale(0.1 -0.1)">
       <use xlink:href="#DejaVuSans-31"/>
       <use xlink:href="#DejaVuSans-2e" transform="translate(63.623047 0)"/>
       <use xlink:href="#DejaVuSans-32" transform="translate(95.410156 0)"/>
       <use xlink:href="#DejaVuSans-35" transform="translate(159.033203 0)"/>
      </g>
     </g>
    </g>
    <g id="xtick_6">
     <g id="line2d_6">
      <g>
       <use xlink:href="#m92d5042842" x="469.622551" y="74.64351" style="stroke: #000000; stroke-width: 0.8"/>
      </g>
     </g>
     <g id="text_6">
      <!-- 1.50 -->
      <g transform="translate(458.489738 89.241948) scale(0.1 -0.1)">
       <use xlink:href="#DejaVuSans-31"/>
       <use xlink:href="#DejaVuSans-2e" transform="translate(63.623047 0)"/>
       <use xlink:href="#DejaVuSans-35" transform="translate(95.410156 0)"/>
       <use xlink:href="#DejaVuSans-30" transform="translate(159.033203 0)"/>
      </g>
     </g>
    </g>
    <g id="xtick_7">
     <g id="line2d_7">
      <g>
       <use xlink:href="#m92d5042842" x="556.727202" y="74.64351" style="stroke: #000000; stroke-width: 0.8"/>
      </g>
     </g>
     <g id="text_7">
      <!-- 1.75 -->
      <g transform="translate(545.594389 89.241948) scale(0.1 -0.1)">
       <use xlink:href="#DejaVuSans-31"/>
       <use xlink:href="#DejaVuSans-2e" transform="translate(63.623047 0)"/>
       <use xlink:href="#DejaVuSans-37" transform="translate(95.410156 0)"/>
       <use xlink:href="#DejaVuSans-35" transform="translate(159.033203 0)"/>
      </g>
     </g>
    </g>
    <g id="xtick_8">
     <g id="line2d_8">
      <g>
       <use xlink:href="#m92d5042842" x="643.831853" y="74.64351" style="stroke: #000000; stroke-width: 0.8"/>
      </g>
     </g>
     <g id="text_8">
      <!-- 2.00 -->
      <g transform="translate(632.699041 89.241948) scale(0.1 -0.1)">
       <use xlink:href="#DejaVuSans-32"/>
       <use xlink:href="#DejaVuSans-2e" transform="translate(63.623047 0)"/>
       <use xlink:href="#DejaVuSans-30" transform="translate(95.410156 0)"/>
       <use xlink:href="#DejaVuSans-30" transform="translate(159.033203 0)"/>
      </g>
     </g>
    </g>
    <g id="text_9">
     <!-- time [s] -->
     <g transform="translate(347.447656 102.920073) scale(0.1 -0.1)">
      <defs>
       <path id="DejaVuSans-74" d="M 1172 4494 
L 1172 3500 
L 2356 3500 
L 2356 3053 
L 1172 3053 
L 1172 1153 
Q 1172 725 1289 603 
Q 1406 481 1766 481 
L 2356 481 
L 2356 0 
L 1766 0 
Q 1100 0 847 248 
Q 594 497 594 1153 
L 594 3053 
L 172 3053 
L 172 3500 
L 594 3500 
L 594 4494 
L 1172 4494 
z
" transform="scale(0.015625)"/>
       <path id="DejaVuSans-69" d="M 603 3500 
L 1178 3500 
L 1178 0 
L 603 0 
L 603 3500 
z
M 603 4863 
L 1178 4863 
L 1178 4134 
L 603 4134 
L 603 4863 
z
" transform="scale(0.015625)"/>
       <path id="DejaVuSans-6d" d="M 3328 2828 
Q 3544 3216 3844 3400 
Q 4144 3584 4550 3584 
Q 5097 3584 5394 3201 
Q 5691 2819 5691 2113 
L 5691 0 
L 5113 0 
L 5113 2094 
Q 5113 2597 4934 2840 
Q 4756 3084 4391 3084 
Q 3944 3084 3684 2787 
Q 3425 2491 3425 1978 
L 3425 0 
L 2847 0 
L 2847 2094 
Q 2847 2600 2669 2842 
Q 2491 3084 2119 3084 
Q 1678 3084 1418 2786 
Q 1159 2488 1159 1978 
L 1159 0 
L 581 0 
L 581 3500 
L 1159 3500 
L 1159 2956 
Q 1356 3278 1631 3431 
Q 1906 3584 2284 3584 
Q 2666 3584 2933 3390 
Q 3200 3197 3328 2828 
z
" transform="scale(0.015625)"/>
       <path id="DejaVuSans-65" d="M 3597 1894 
L 3597 1613 
L 953 1613 
Q 991 1019 1311 708 
Q 1631 397 2203 397 
Q 2534 397 2845 478 
Q 3156 559 3463 722 
L 3463 178 
Q 3153 47 2828 -22 
Q 2503 -91 2169 -91 
Q 1331 -91 842 396 
Q 353 884 353 1716 
Q 353 2575 817 3079 
Q 1281 3584 2069 3584 
Q 2775 3584 3186 3129 
Q 3597 2675 3597 1894 
z
M 3022 2063 
Q 3016 2534 2758 2815 
Q 2500 3097 2075 3097 
Q 1594 3097 1305 2825 
Q 1016 2553 972 2059 
L 3022 2063 
z
" transform="scale(0.015625)"/>
       <path id="DejaVuSans-20" transform="scale(0.015625)"/>
       <path id="DejaVuSans-5b" d="M 550 4863 
L 1875 4863 
L 1875 4416 
L 1125 4416 
L 1125 -397 
L 1875 -397 
L 1875 -844 
L 550 -844 
L 550 4863 
z
" transform="scale(0.015625)"/>
       <path id="DejaVuSans-73" d="M 2834 3397 
L 2834 2853 
Q 2591 2978 2328 3040 
Q 2066 3103 1784 3103 
Q 1356 3103 1142 2972 
Q 928 2841 928 2578 
Q 928 2378 1081 2264 
Q 1234 2150 1697 2047 
L 1894 2003 
Q 2506 1872 2764 1633 
Q 3022 1394 3022 966 
Q 3022 478 2636 193 
Q 2250 -91 1575 -91 
Q 1294 -91 989 -36 
Q 684 19 347 128 
L 347 722 
Q 666 556 975 473 
Q 1284 391 1588 391 
Q 1994 391 2212 530 
Q 2431 669 2431 922 
Q 2431 1156 2273 1281 
Q 2116 1406 1581 1522 
L 1381 1569 
Q 847 1681 609 1914 
Q 372 2147 372 2553 
Q 372 3047 722 3315 
Q 1072 3584 1716 3584 
Q 2034 3584 2315 3537 
Q 2597 3491 2834 3397 
z
" transform="scale(0.015625)"/>
       <path id="DejaVuSans-5d" d="M 1947 4863 
L 1947 -844 
L 622 -844 
L 622 -397 
L 1369 -397 
L 1369 4416 
L 622 4416 
L 622 4863 
L 1947 4863 
z
" transform="scale(0.015625)"/>
      </defs>
      <use xlink:href="#DejaVuSans-74"/>
      <use xlink:href="#DejaVuSans-69" transform="translate(39.208984 0)"/>
      <use xlink:href="#DejaVuSans-6d" transform="translate(66.992188 0)"/>
      <use xlink:href="#DejaVuSans-65" transform="translate(164.404297 0)"/>
      <use xlink:href="#DejaVuSans-20" transform="translate(225.927734 0)"/>
      <use xlink:href="#DejaVuSans-5b" transform="translate(257.714844 0)"/>
      <use xlink:href="#DejaVuSans-73" transform="translate(296.728516 0)"/>
      <use xlink:href="#DejaVuSans-5d" transform="translate(348.828125 0)"/>
     </g>
    </g>
   </g>
   <g id="matplotlib.axis_2">
    <g id="text_10">
     <!-- boundaries -->
     <g transform="translate(10.598678 66.757031) rotate(-90) scale(0.1 -0.1)">
      <defs>
       <path id="DejaVuSans-62" d="M 3116 1747 
Q 3116 2381 2855 2742 
Q 2594 3103 2138 3103 
Q 1681 3103 1420 2742 
Q 1159 2381 1159 1747 
Q 1159 1113 1420 752 
Q 1681 391 2138 391 
Q 2594 391 2855 752 
Q 3116 1113 3116 1747 
z
M 1159 2969 
Q 1341 3281 1617 3432 
Q 1894 3584 2278 3584 
Q 2916 3584 3314 3078 
Q 3713 2572 3713 1747 
Q 3713 922 3314 415 
Q 2916 -91 2278 -91 
Q 1894 -91 1617 61 
Q 1341 213 1159 525 
L 1159 0 
L 581 0 
L 581 4863 
L 1159 4863 
L 1159 2969 
z
" transform="scale(0.015625)"/>
       <path id="DejaVuSans-6f" d="M 1959 3097 
Q 1497 3097 1228 2736 
Q 959 2375 959 1747 
Q 959 1119 1226 758 
Q 1494 397 1959 397 
Q 2419 397 2687 759 
Q 2956 1122 2956 1747 
Q 2956 2369 2687 2733 
Q 2419 3097 1959 3097 
z
M 1959 3584 
Q 2709 3584 3137 3096 
Q 3566 2609 3566 1747 
Q 3566 888 3137 398 
Q 2709 -91 1959 -91 
Q 1206 -91 779 398 
Q 353 888 353 1747 
Q 353 2609 779 3096 
Q 1206 3584 1959 3584 
z
" transform="scale(0.015625)"/>
       <path id="DejaVuSans-75" d="M 544 1381 
L 544 3500 
L 1119 3500 
L 1119 1403 
Q 1119 906 1312 657 
Q 1506 409 1894 409 
Q 2359 409 2629 706 
Q 2900 1003 2900 1516 
L 2900 3500 
L 3475 3500 
L 3475 0 
L 2900 0 
L 2900 538 
Q 2691 219 2414 64 
Q 2138 -91 1772 -91 
Q 1169 -91 856 284 
Q 544 659 544 1381 
z
M 1991 3584 
L 1991 3584 
z
" transform="scale(0.015625)"/>
       <path id="DejaVuSans-6e" d="M 3513 2113 
L 3513 0 
L 2938 0 
L 2938 2094 
Q 2938 2591 2744 2837 
Q 2550 3084 2163 3084 
Q 1697 3084 1428 2787 
Q 1159 2491 1159 1978 
L 1159 0 
L 581 0 
L 581 3500 
L 1159 3500 
L 1159 2956 
Q 1366 3272 1645 3428 
Q 1925 3584 2291 3584 
Q 2894 3584 3203 3211 
Q 3513 2838 3513 2113 
z
" transform="scale(0.015625)"/>
       <path id="DejaVuSans-64" d="M 2906 2969 
L 2906 4863 
L 3481 4863 
L 3481 0 
L 2906 0 
L 2906 525 
Q 2725 213 2448 61 
Q 2172 -91 1784 -91 
Q 1150 -91 751 415 
Q 353 922 353 1747 
Q 353 2572 751 3078 
Q 1150 3584 1784 3584 
Q 2172 3584 2448 3432 
Q 2725 3281 2906 2969 
z
M 947 1747 
Q 947 1113 1208 752 
Q 1469 391 1925 391 
Q 2381 391 2643 752 
Q 2906 1113 2906 1747 
Q 2906 2381 2643 2742 
Q 2381 3103 1925 3103 
Q 1469 3103 1208 2742 
Q 947 2381 947 1747 
z
" transform="scale(0.015625)"/>
       <path id="DejaVuSans-61" d="M 2194 1759 
Q 1497 1759 1228 1600 
Q 959 1441 959 1056 
Q 959 750 1161 570 
Q 1363 391 1709 391 
Q 2188 391 2477 730 
Q 2766 1069 2766 1631 
L 2766 1759 
L 2194 1759 
z
M 3341 1997 
L 3341 0 
L 2766 0 
L 2766 531 
Q 2569 213 2275 61 
Q 1981 -91 1556 -91 
Q 1019 -91 701 211 
Q 384 513 384 1019 
Q 384 1609 779 1909 
Q 1175 2209 1959 2209 
L 2766 2209 
L 2766 2266 
Q 2766 2663 2505 2880 
Q 2244 3097 1772 3097 
Q 1472 3097 1187 3025 
Q 903 2953 641 2809 
L 641 3341 
Q 956 3463 1253 3523 
Q 1550 3584 1831 3584 
Q 2591 3584 2966 3190 
Q 3341 2797 3341 1997 
z
" transform="scale(0.015625)"/>
       <path id="DejaVuSans-72" d="M 2631 2963 
Q 2534 3019 2420 3045 
Q 2306 3072 2169 3072 
Q 1681 3072 1420 2755 
Q 1159 2438 1159 1844 
L 1159 0 
L 581 0 
L 581 3500 
L 1159 3500 
L 1159 2956 
Q 1341 3275 1631 3429 
Q 1922 3584 2338 3584 
Q 2397 3584 2469 3576 
Q 2541 3569 2628 3553 
L 2631 2963 
z
" transform="scale(0.015625)"/>
      </defs>
      <use xlink:href="#DejaVuSans-62"/>
      <use xlink:href="#DejaVuSans-6f" transform="translate(63.476562 0)"/>
      <use xlink:href="#DejaVuSans-75" transform="translate(124.658203 0)"/>
      <use xlink:href="#DejaVuSans-6e" transform="translate(188.037109 0)"/>
      <use xlink:href="#DejaVuSans-64" transform="translate(251.416016 0)"/>
      <use xlink:href="#DejaVuSans-61" transform="translate(314.892578 0)"/>
      <use xlink:href="#DejaVuSans-72" transform="translate(376.171875 0)"/>
      <use xlink:href="#DejaVuSans-69" transform="translate(417.285156 0)"/>
      <use xlink:href="#DejaVuSans-65" transform="translate(445.068359 0)"/>
      <use xlink:href="#DejaVuSans-73" transform="translate(506.591797 0)"/>
     </g>
    </g>
   </g>
   <g id="LineCollection_1">
    <path d="M 100.29883 71.386998 
L 100.29883 6.256752 
" clip-path="url(#p153c3bfc19)" style="fill: none; stroke: #2ca02c; stroke-width: 2"/>
    <path d="M 135.140691 71.386998 
L 135.140691 6.256752 
" clip-path="url(#p153c3bfc19)" style="fill: none; stroke: #2ca02c; stroke-width: 2"/>
    <path d="M 163.014179 71.386998 
L 163.014179 6.256752 
" clip-path="url(#p153c3bfc19)" style="fill: none; stroke: #2ca02c; stroke-width: 2"/>
    <path d="M 169.982551 71.386998 
L 169.982551 6.256752 
" clip-path="url(#p153c3bfc19)" style="fill: none; stroke: #2ca02c; stroke-width: 2"/>
    <path d="M 190.887667 71.386998 
L 190.887667 6.256752 
" clip-path="url(#p153c3bfc19)" style="fill: none; stroke: #2ca02c; stroke-width: 2"/>
    <path d="M 232.6979 71.386998 
L 232.6979 6.256752 
" clip-path="url(#p153c3bfc19)" style="fill: none; stroke: #2ca02c; stroke-width: 2"/>
    <path d="M 281.476504 71.386998 
L 281.476504 6.256752 
" clip-path="url(#p153c3bfc19)" style="fill: none; stroke: #2ca02c; stroke-width: 2"/>
    <path d="M 302.381621 71.386998 
L 302.381621 6.256752 
" clip-path="url(#p153c3bfc19)" style="fill: none; stroke: #2ca02c; stroke-width: 2"/>
    <path d="M 337.223481 71.386998 
L 337.223481 6.256752 
" clip-path="url(#p153c3bfc19)" style="fill: none; stroke: #2ca02c; stroke-width: 2"/>
    <path d="M 344.191853 71.386998 
L 344.191853 6.256752 
" clip-path="url(#p153c3bfc19)" style="fill: none; stroke: #2ca02c; stroke-width: 2"/>
    <path d="M 358.128597 71.386998 
L 358.128597 6.256752 
" clip-path="url(#p153c3bfc19)" style="fill: none; stroke: #2ca02c; stroke-width: 2"/>
    <path d="M 379.033714 71.386998 
L 379.033714 6.256752 
" clip-path="url(#p153c3bfc19)" style="fill: none; stroke: #2ca02c; stroke-width: 2"/>
    <path d="M 406.907202 71.386998 
L 406.907202 6.256752 
" clip-path="url(#p153c3bfc19)" style="fill: none; stroke: #2ca02c; stroke-width: 2"/>
    <path d="M 455.685807 71.386998 
L 455.685807 6.256752 
" clip-path="url(#p153c3bfc19)" style="fill: none; stroke: #2ca02c; stroke-width: 2"/>
    <path d="M 469.622551 71.386998 
L 469.622551 6.256752 
" clip-path="url(#p153c3bfc19)" style="fill: none; stroke: #2ca02c; stroke-width: 2"/>
    <path d="M 490.527667 71.386998 
L 490.527667 6.256752 
" clip-path="url(#p153c3bfc19)" style="fill: none; stroke: #2ca02c; stroke-width: 2"/>
    <path d="M 539.306272 71.386998 
L 539.306272 6.256752 
" clip-path="url(#p153c3bfc19)" style="fill: none; stroke: #2ca02c; stroke-width: 2"/>
    <path d="M 560.211388 71.386998 
L 560.211388 6.256752 
" clip-path="url(#p153c3bfc19)" style="fill: none; stroke: #2ca02c; stroke-width: 2"/>
   </g>
   <g id="LineCollection_2">
    <path d="M 128.172318 71.386998 
L 128.172318 6.256752 
" clip-path="url(#p153c3bfc19)" style="fill: none; stroke-dasharray: 7.4,3.2; stroke-dashoffset: 0; stroke: #d62728; stroke-width: 2"/>
    <path d="M 288.444876 71.386998 
L 288.444876 6.256752 
" clip-path="url(#p153c3bfc19)" style="fill: none; stroke-dasharray: 7.4,3.2; stroke-dashoffset: 0; stroke: #d62728; stroke-width: 2"/>
    <path d="M 295.413249 71.386998 
L 295.413249 6.256752 
" clip-path="url(#p153c3bfc19)" style="fill: none; stroke-dasharray: 7.4,3.2; stroke-dashoffset: 0; stroke: #d62728; stroke-width: 2"/>
    <path d="M 448.717435 71.386998 
L 448.717435 6.256752 
" clip-path="url(#p153c3bfc19)" style="fill: none; stroke-dasharray: 7.4,3.2; stroke-dashoffset: 0; stroke: #d62728; stroke-width: 2"/>
    <path d="M 574.148132 71.386998 
L 574.148132 6.256752 
" clip-path="url(#p153c3bfc19)" style="fill: none; stroke-dasharray: 7.4,3.2; stroke-dashoffset: 0; stroke: #d62728; stroke-width: 2"/>
    <path d="M 622.926737 71.386998 
L 622.926737 6.256752 
" clip-path="url(#p153c3bfc19)" style="fill: none; stroke-dasharray: 7.4,3.2; stroke-dashoffset: 0; stroke: #d62728; stroke-width: 2"/>
   </g>
   <g id="patch_24">
    <path d="M 16.678365 74.64351 
L 716.99976 74.64351 
" style="fill: none; stroke: #000000; stroke-width: 0.8; stroke-linejoin: miter; stroke-linecap: square"/>
   </g>
  </g>
 </g>
 <defs>
  <clipPath id="p153c3bfc19">
   <rect x="16.678365" y="3.00024" width="700.321395" height="71.64327"/>
  </clipPath>
 </defs>
 <defs>
  <pattern id="h4c83ccf1ec" patternUnits="userSpaceOnUse" x="0" y="0" width="72" height="72">
   <rect x="0" y="0" width="73" height="73" fill="#d62728"/>
   <path d="M -36 36 
L 36 -36 
M -30 42 
L 42 -30 
M -24 48 
L 48 -24 
M -18 54 
L 54 -18 
M -12 60 
L 60 -12 
M -6 66 
L 66 -6 
M 0 72 
L 72 0 
M 6 78 
L 78 6 
M 12 84 
L 84 12 
M 18 90 
L 90 18 
M 24 96 
L 96 24 
M 30 102 
L 102 30 
M 36 108 
L 108 36 
" style="fill: #d62728; stroke: #d62728; stroke-width: 1.0; stroke-linecap: butt; stroke-linejoin: miter; stroke-opacity: 0.2"/>
  </pattern>
 </defs>
</svg>
