<?xml version="1.0" encoding="utf-8" standalone="no"?>
<!DOCTYPE svg PUBLIC "-//W3C//DTD SVG 1.1//EN"
  "http://www.w3.org/Graphics/SVG/1.1/DTD/svg11.dtd">
<svg xmlns:xlink="http://www.w3.org/1999/xlink" width="221.107211pt" height="152.391291pt" viewBox="0 0 221.107211 152.391291" xmlns="http://www.w3.org/2000/svg" version="1.1">
 <metadata>
  <rdf:RDF xmlns:dc="http://purl.org/dc/elements/1.1/" xmlns:cc="http://creativecommons.org/ns#" xmlns:rdf="http://www.w3.org/1999/02/22-rdf-syntax-ns#">
   <cc:Work>
    <dc:type rdf:resource="http://purl.org/dc/dcmitype/StillImage"/>
    <dc:date>2026-01-29T14:36:01.077838</dc:date>
    <dc:format>image/svg+xml</dc:format>
    <dc:creator>
     <cc:Agent>
      <dc:title>Matplotlib v3.10.8, https://matplotlib.org/</dc:title>
     </cc:Agent>
    </dc:creator>
   </cc:Work>
  </rdf:RDF>
 </metadata>
 <defs>
  <style type="text/css">*{stroke-linejoin: round; stroke-linecap: butt}</style>
 </defs>
 <g id="figure_1">
  <g id="patch_1">
   <path d="M 0 152.391291 
L 221.107211 152.391291 
L 221.107211 0 
L 0 0 
z
" style="fill: #ffffff"/>
  </g>
  <g id="axes_1">
   <g id="patch_2">
    <path d="M 43.78125 114.835041 
L 213.907211 114.835041 
L 213.907211 12.759465 
L 43.78125 12.759465 
z
" style="fill: #ffffff"/>
   </g>
   <g id="matplotlib.axis_1">
    <g id="xtick_1">
     <g id="line2d_1">
      <path d="M 74.713243 114.835041 
L 74.713243 12.759465 
" clip-path="url(#p87104506ea)" style="fill: none; stroke-dasharray: 0.8,1.32; stroke-dashoffset: 0; stroke: #b0b0b0; stroke-width: 0.8"/>
     </g>
     <g id="line2d_2">
      <defs>
       <path id="m447fc6c349" d="M 0 0 
L 0 3.5 
" style="stroke: #000000; stroke-width: 0.8"/>
      </defs>
      <g>
       <use xlink:href="#m447fc6c349" x="74.713243" y="114.835041" style="stroke: #000000; stroke-width: 0.8"/>
      </g>
     </g>
     <g id="text_1">
      <!-- −0.2 -->
      <g transform="translate(62.571837 129.433478) scale(0.1 -0.1)">
       <defs>
        <path id="DejaVuSans-2212" d="M 678 2272 
L 4684 2272 
L 4684 1741 
L 678 1741 
L 678 2272 
z
" transform="scale(0.015625)"/>
        <path id="DejaVuSans-30" d="M 2034 4250 
Q 1547 4250 1301 3770 
Q 1056 3291 1056 2328 
Q 1056 1369 1301 889 
Q 1547 409 2034 409 
Q 2525 409 2770 889 
Q 3016 1369 3016 2328 
Q 3016 3291 2770 3770 
Q 2525 4250 2034 4250 
z
M 2034 4750 
Q 2819 4750 3233 4129 
Q 3647 3509 3647 2328 
Q 3647 1150 3233 529 
Q 2819 -91 2034 -91 
Q 1250 -91 836 529 
Q 422 1150 422 2328 
Q 422 3509 836 4129 
Q 1250 4750 2034 4750 
z
" transform="scale(0.015625)"/>
        <path id="DejaVuSans-2e" d="M 684 794 
L 1344 794 
L 1344 0 
L 684 0 
L 684 794 
z
" transform="scale(0.015625)"/>
        <path id="DejaVuSans-32" d="M 1228 531 
L 3431 531 
L 3431 0 
L 469 0 
L 469 531 
Q 828 903 1448 1529 
Q 2069 2156 2228 2338 
Q 2531 2678 2651 2914 
Q 2772 3150 2772 3378 
Q 2772 3750 2511 3984 
Q 2250 4219 1831 4219 
Q 1534 4219 1204 4116 
Q 875 4013 500 3803 
L 500 4441 
Q 881 4594 1212 4672 
Q 1544 4750 1819 4750 
Q 2544 4750 2975 4387 
Q 3406 4025 3406 3419 
Q 3406 3131 3298 2873 
Q 3191 2616 2906 2266 
Q 2828 2175 2409 1742 
Q 1991 1309 1228 531 
z
" transform="scale(0.015625)"/>
       </defs>
       <use xlink:href="#DejaVuSans-2212"/>
       <use xlink:href="#DejaVuSans-30" transform="translate(83.789062 0)"/>
       <use xlink:href="#DejaVuSans-2e" transform="translate(147.412109 0)"/>
       <use xlink:href="#DejaVuSans-32" transform="translate(179.199219 0)"/>
      </g>
     </g>
    </g>
    <g id="xtick_2">
     <g id="line2d_3">
      <path d="M 136.577228 114.835041 
L 136.577228 12.759465 
" clip-path="url(#p87104506ea)" style="fill: none; stroke-dasharray: 0.8,1.32; stroke-dashoffset: 0; stroke: #b0b0b0; stroke-width: 0.8"/>
     </g>
     <g id="line2d_4">
      <g>
       <use xlink:href="#m447fc6c349" x="136.577228" y="114.835041" style="stroke: #000000; stroke-width: 0.8"/>
      </g>
     </g>
     <g id="text_2">
      <!-- 0.0 -->
      <g transform="translate(128.625666 129.433478) scale(0.1 -0.1)">
       <use xlink:href="#DejaVuSans-30"/>
       <use xlink:href="#DejaVuSans-2e" transform="translate(63.623047 0)"/>
       <use xlink:href="#DejaVuSans-30" transform="translate(95.410156 0)"/>
      </g>
     </g>
    </g>
    <g id="xtick_3">
     <g id="line2d_5">
      <path d="M 198.441214 114.835041 
L 198.441214 12.759465 
" clip-path="url(#p87104506ea)" style="fill: none; stroke-dasharray: 0.8,1.32; stroke-dashoffset: 0; stroke: #b0b0b0; stroke-width: 0.8"/>
     </g>
     <g id="line2d_6">
      <g>
       <use xlink:href="#m447fc6c349" x="198.441214" y="114.835041" style="stroke: #000000; stroke-width: 0.8"/>
      </g>
     </g>
     <g id="text_3">
      <!-- 0.2 -->
      <g transform="translate(190.489652 129.433478) scale(0.1 -0.1)">
       <use xlink:href="#DejaVuSans-30"/>
       <use xlink:href="#DejaVuSans-2e" transform="translate(63.623047 0)"/>
       <use xlink:href="#DejaVuSans-32" transform="translate(95.410156 0)"/>
      </g>
     </g>
    </g>
    <g id="text_4">
     <!-- Over Segmentation -->
     <g transform="translate(80.085637 143.111603) scale(0.1 -0.1)">
      <defs>
       <path id="DejaVuSans-4f" d="M 2522 4238 
Q 1834 4238 1429 3725 
Q 1025 3213 1025 2328 
Q 1025 1447 1429 934 
Q 1834 422 2522 422 
Q 3209 422 3611 934 
Q 4013 1447 4013 2328 
Q 4013 3213 3611 3725 
Q 3209 4238 2522 4238 
z
M 2522 4750 
Q 3503 4750 4090 4092 
Q 4678 3434 4678 2328 
Q 4678 1225 4090 567 
Q 3503 -91 2522 -91 
Q 1538 -91 948 565 
Q 359 1222 359 2328 
Q 359 3434 948 4092 
Q 1538 4750 2522 4750 
z
" transform="scale(0.015625)"/>
       <path id="DejaVuSans-76" d="M 191 3500 
L 800 3500 
L 1894 563 
L 2988 3500 
L 3597 3500 
L 2284 0 
L 1503 0 
L 191 3500 
z
" transform="scale(0.015625)"/>
       <path id="DejaVuSans-65" d="M 3597 1894 
L 3597 1613 
L 953 1613 
Q 991 1019 1311 708 
Q 1631 397 2203 397 
Q 2534 397 2845 478 
Q 3156 559 3463 722 
L 3463 178 
Q 3153 47 2828 -22 
Q 2503 -91 2169 -91 
Q 1331 -91 842 396 
Q 353 884 353 1716 
Q 353 2575 817 3079 
Q 1281 3584 2069 3584 
Q 2775 3584 3186 3129 
Q 3597 2675 3597 1894 
z
M 3022 2063 
Q 3016 2534 2758 2815 
Q 2500 3097 2075 3097 
Q 1594 3097 1305 2825 
Q 1016 2553 972 2059 
L 3022 2063 
z
" transform="scale(0.015625)"/>
       <path id="DejaVuSans-72" d="M 2631 2963 
Q 2534 3019 2420 3045 
Q 2306 3072 2169 3072 
Q 1681 3072 1420 2755 
Q 1159 2438 1159 1844 
L 1159 0 
L 581 0 
L 581 3500 
L 1159 3500 
L 1159 2956 
Q 1341 3275 1631 3429 
Q 1922 3584 2338 3584 
Q 2397 3584 2469 3576 
Q 2541 3569 2628 3553 
L 2631 2963 
z
" transform="scale(0.015625)"/>
       <path id="DejaVuSans-20" transform="scale(0.015625)"/>
       <path id="DejaVuSans-53" d="M 3425 4513 
L 3425 3897 
Q 3066 4069 2747 4153 
Q 2428 4238 2131 4238 
Q 1616 4238 1336 4038 
Q 1056 3838 1056 3469 
Q 1056 3159 1242 3001 
Q 1428 2844 1947 2747 
L 2328 2669 
Q 3034 2534 3370 2195 
Q 3706 1856 3706 1288 
Q 3706 609 3251 259 
Q 2797 -91 1919 -91 
Q 1588 -91 1214 -16 
Q 841 59 441 206 
L 441 856 
Q 825 641 1194 531 
Q 1563 422 1919 422 
Q 2459 422 2753 634 
Q 3047 847 3047 1241 
Q 3047 1584 2836 1778 
Q 2625 1972 2144 2069 
L 1759 2144 
Q 1053 2284 737 2584 
Q 422 2884 422 3419 
Q 422 4038 858 4394 
Q 1294 4750 2059 4750 
Q 2388 4750 2728 4690 
Q 3069 4631 3425 4513 
z
" transform="scale(0.015625)"/>
       <path id="DejaVuSans-67" d="M 2906 1791 
Q 2906 2416 2648 2759 
Q 2391 3103 1925 3103 
Q 1463 3103 1205 2759 
Q 947 2416 947 1791 
Q 947 1169 1205 825 
Q 1463 481 1925 481 
Q 2391 481 2648 825 
Q 2906 1169 2906 1791 
z
M 3481 434 
Q 3481 -459 3084 -895 
Q 2688 -1331 1869 -1331 
Q 1566 -1331 1297 -1286 
Q 1028 -1241 775 -1147 
L 775 -588 
Q 1028 -725 1275 -790 
Q 1522 -856 1778 -856 
Q 2344 -856 2625 -561 
Q 2906 -266 2906 331 
L 2906 616 
Q 2728 306 2450 153 
Q 2172 0 1784 0 
Q 1141 0 747 490 
Q 353 981 353 1791 
Q 353 2603 747 3093 
Q 1141 3584 1784 3584 
Q 2172 3584 2450 3431 
Q 2728 3278 2906 2969 
L 2906 3500 
L 3481 3500 
L 3481 434 
z
" transform="scale(0.015625)"/>
       <path id="DejaVuSans-6d" d="M 3328 2828 
Q 3544 3216 3844 3400 
Q 4144 3584 4550 3584 
Q 5097 3584 5394 3201 
Q 5691 2819 5691 2113 
L 5691 0 
L 5113 0 
L 5113 2094 
Q 5113 2597 4934 2840 
Q 4756 3084 4391 3084 
Q 3944 3084 3684 2787 
Q 3425 2491 3425 1978 
L 3425 0 
L 2847 0 
L 2847 2094 
Q 2847 2600 2669 2842 
Q 2491 3084 2119 3084 
Q 1678 3084 1418 2786 
Q 1159 2488 1159 1978 
L 1159 0 
L 581 0 
L 581 3500 
L 1159 3500 
L 1159 2956 
Q 1356 3278 1631 3431 
Q 1906 3584 2284 3584 
Q 2666 3584 2933 3390 
Q 3200 3197 3328 2828 
z
" transform="scale(0.015625)"/>
       <path id="DejaVuSans-6e" d="M 3513 2113 
L 3513 0 
L 2938 0 
L 2938 2094 
Q 2938 2591 2744 2837 
Q 2550 3084 2163 3084 
Q 1697 3084 1428 2787 
Q 1159 2491 1159 1978 
L 1159 0 
L 581 0 
L 581 3500 
L 1159 3500 
L 1159 2956 
Q 1366 3272 1645 3428 
Q 1925 3584 2291 3584 
Q 2894 3584 3203 3211 
Q 3513 2838 3513 2113 
z
" transform="scale(0.015625)"/>
       <path id="DejaVuSans-74" d="M 1172 4494 
L 1172 3500 
L 2356 3500 
L 2356 3053 
L 1172 3053 
L 1172 1153 
Q 1172 725 1289 603 
Q 1406 481 1766 481 
L 2356 481 
L 2356 0 
L 1766 0 
Q 1100 0 847 248 
Q 594 497 594 1153 
L 594 3053 
L 172 3053 
L 172 3500 
L 594 3500 
L 594 4494 
L 1172 4494 
z
" transform="scale(0.015625)"/>
       <path id="DejaVuSans-61" d="M 2194 1759 
Q 1497 1759 1228 1600 
Q 959 1441 959 1056 
Q 959 750 1161 570 
Q 1363 391 1709 391 
Q 2188 391 2477 730 
Q 2766 1069 2766 1631 
L 2766 1759 
L 2194 1759 
z
M 3341 1997 
L 3341 0 
L 2766 0 
L 2766 531 
Q 2569 213 2275 61 
Q 1981 -91 1556 -91 
Q 1019 -91 701 211 
Q 384 513 384 1019 
Q 384 1609 779 1909 
Q 1175 2209 1959 2209 
L 2766 2209 
L 2766 2266 
Q 2766 2663 2505 2880 
Q 2244 3097 1772 3097 
Q 1472 3097 1187 3025 
Q 903 2953 641 2809 
L 641 3341 
Q 956 3463 1253 3523 
Q 1550 3584 1831 3584 
Q 2591 3584 2966 3190 
Q 3341 2797 3341 1997 
z
" transform="scale(0.015625)"/>
       <path id="DejaVuSans-69" d="M 603 3500 
L 1178 3500 
L 1178 0 
L 603 0 
L 603 3500 
z
M 603 4863 
L 1178 4863 
L 1178 4134 
L 603 4134 
L 603 4863 
z
" transform="scale(0.015625)"/>
       <path id="DejaVuSans-6f" d="M 1959 3097 
Q 1497 3097 1228 2736 
Q 959 2375 959 1747 
Q 959 1119 1226 758 
Q 1494 397 1959 397 
Q 2419 397 2687 759 
Q 2956 1122 2956 1747 
Q 2956 2369 2687 2733 
Q 2419 3097 1959 3097 
z
M 1959 3584 
Q 2709 3584 3137 3096 
Q 3566 2609 3566 1747 
Q 3566 888 3137 398 
Q 2709 -91 1959 -91 
Q 1206 -91 779 398 
Q 353 888 353 1747 
Q 353 2609 779 3096 
Q 1206 3584 1959 3584 
z
" transform="scale(0.015625)"/>
      </defs>
      <use xlink:href="#DejaVuSans-4f"/>
      <use xlink:href="#DejaVuSans-76" transform="translate(78.710938 0)"/>
      <use xlink:href="#DejaVuSans-65" transform="translate(137.890625 0)"/>
      <use xlink:href="#DejaVuSans-72" transform="translate(199.414062 0)"/>
      <use xlink:href="#DejaVuSans-20" transform="translate(240.527344 0)"/>
      <use xlink:href="#DejaVuSans-53" transform="translate(272.314453 0)"/>
      <use xlink:href="#DejaVuSans-65" transform="translate(335.791016 0)"/>
      <use xlink:href="#DejaVuSans-67" transform="translate(397.314453 0)"/>
      <use xlink:href="#DejaVuSans-6d" transform="translate(460.791016 0)"/>
      <use xlink:href="#DejaVuSans-65" transform="translate(558.203125 0)"/>
      <use xlink:href="#DejaVuSans-6e" transform="translate(619.726562 0)"/>
      <use xlink:href="#DejaVuSans-74" transform="translate(683.105469 0)"/>
      <use xlink:href="#DejaVuSans-61" transform="translate(722.314453 0)"/>
      <use xlink:href="#DejaVuSans-74" transform="translate(783.59375 0)"/>
      <use xlink:href="#DejaVuSans-69" transform="translate(822.802734 0)"/>
      <use xlink:href="#DejaVuSans-6f" transform="translate(850.585938 0)"/>
      <use xlink:href="#DejaVuSans-6e" transform="translate(911.767578 0)"/>
     </g>
    </g>
   </g>
   <g id="matplotlib.axis_2">
    <g id="ytick_1">
     <g id="line2d_7">
      <path d="M 43.78125 114.835041 
L 213.907211 114.835041 
" clip-path="url(#p87104506ea)" style="fill: none; stroke-dasharray: 0.8,1.32; stroke-dashoffset: 0; stroke: #b0b0b0; stroke-width: 0.8"/>
     </g>
     <g id="line2d_8">
      <defs>
       <path id="m83c5d4c589" d="M 0 0 
L -3.5 0 
" style="stroke: #000000; stroke-width: 0.8"/>
      </defs>
      <g>
       <use xlink:href="#m83c5d4c589" x="43.78125" y="114.835041" style="stroke: #000000; stroke-width: 0.8"/>
      </g>
     </g>
     <g id="text_5">
      <!-- 0.7 -->
      <g transform="translate(20.878125 118.63426) scale(0.1 -0.1)">
       <defs>
        <path id="DejaVuSans-37" d="M 525 4666 
L 3525 4666 
L 3525 4397 
L 1831 0 
L 1172 0 
L 2766 4134 
L 525 4134 
L 525 4666 
z
" transform="scale(0.015625)"/>
       </defs>
       <use xlink:href="#DejaVuSans-30"/>
       <use xlink:href="#DejaVuSans-2e" transform="translate(63.623047 0)"/>
       <use xlink:href="#DejaVuSans-37" transform="translate(95.410156 0)"/>
      </g>
     </g>
    </g>
    <g id="ytick_2">
     <g id="line2d_9">
      <path d="M 43.78125 83.903048 
L 213.907211 83.903048 
" clip-path="url(#p87104506ea)" style="fill: none; stroke-dasharray: 0.8,1.32; stroke-dashoffset: 0; stroke: #b0b0b0; stroke-width: 0.8"/>
     </g>
     <g id="line2d_10">
      <g>
       <use xlink:href="#m83c5d4c589" x="43.78125" y="83.903048" style="stroke: #000000; stroke-width: 0.8"/>
      </g>
     </g>
     <g id="text_6">
      <!-- 0.8 -->
      <g transform="translate(20.878125 87.702267) scale(0.1 -0.1)">
       <defs>
        <path id="DejaVuSans-38" d="M 2034 2216 
Q 1584 2216 1326 1975 
Q 1069 1734 1069 1313 
Q 1069 891 1326 650 
Q 1584 409 2034 409 
Q 2484 409 2743 651 
Q 3003 894 3003 1313 
Q 3003 1734 2745 1975 
Q 2488 2216 2034 2216 
z
M 1403 2484 
Q 997 2584 770 2862 
Q 544 3141 544 3541 
Q 544 4100 942 4425 
Q 1341 4750 2034 4750 
Q 2731 4750 3128 4425 
Q 3525 4100 3525 3541 
Q 3525 3141 3298 2862 
Q 3072 2584 2669 2484 
Q 3125 2378 3379 2068 
Q 3634 1759 3634 1313 
Q 3634 634 3220 271 
Q 2806 -91 2034 -91 
Q 1263 -91 848 271 
Q 434 634 434 1313 
Q 434 1759 690 2068 
Q 947 2378 1403 2484 
z
M 1172 3481 
Q 1172 3119 1398 2916 
Q 1625 2713 2034 2713 
Q 2441 2713 2670 2916 
Q 2900 3119 2900 3481 
Q 2900 3844 2670 4047 
Q 2441 4250 2034 4250 
Q 1625 4250 1398 4047 
Q 1172 3844 1172 3481 
z
" transform="scale(0.015625)"/>
       </defs>
       <use xlink:href="#DejaVuSans-30"/>
       <use xlink:href="#DejaVuSans-2e" transform="translate(63.623047 0)"/>
       <use xlink:href="#DejaVuSans-38" transform="translate(95.410156 0)"/>
      </g>
     </g>
    </g>
    <g id="ytick_3">
     <g id="line2d_11">
      <path d="M 43.78125 52.971055 
L 213.907211 52.971055 
" clip-path="url(#p87104506ea)" style="fill: none; stroke-dasharray: 0.8,1.32; stroke-dashoffset: 0; stroke: #b0b0b0; stroke-width: 0.8"/>
     </g>
     <g id="line2d_12">
      <g>
       <use xlink:href="#m83c5d4c589" x="43.78125" y="52.971055" style="stroke: #000000; stroke-width: 0.8"/>
      </g>
     </g>
     <g id="text_7">
      <!-- 0.9 -->
      <g transform="translate(20.878125 56.770274) scale(0.1 -0.1)">
       <defs>
        <path id="DejaVuSans-39" d="M 703 97 
L 703 672 
Q 941 559 1184 500 
Q 1428 441 1663 441 
Q 2288 441 2617 861 
Q 2947 1281 2994 2138 
Q 2813 1869 2534 1725 
Q 2256 1581 1919 1581 
Q 1219 1581 811 2004 
Q 403 2428 403 3163 
Q 403 3881 828 4315 
Q 1253 4750 1959 4750 
Q 2769 4750 3195 4129 
Q 3622 3509 3622 2328 
Q 3622 1225 3098 567 
Q 2575 -91 1691 -91 
Q 1453 -91 1209 -44 
Q 966 3 703 97 
z
M 1959 2075 
Q 2384 2075 2632 2365 
Q 2881 2656 2881 3163 
Q 2881 3666 2632 3958 
Q 2384 4250 1959 4250 
Q 1534 4250 1286 3958 
Q 1038 3666 1038 3163 
Q 1038 2656 1286 2365 
Q 1534 2075 1959 2075 
z
" transform="scale(0.015625)"/>
       </defs>
       <use xlink:href="#DejaVuSans-30"/>
       <use xlink:href="#DejaVuSans-2e" transform="translate(63.623047 0)"/>
       <use xlink:href="#DejaVuSans-39" transform="translate(95.410156 0)"/>
      </g>
     </g>
    </g>
    <g id="ytick_4">
     <g id="line2d_13">
      <path d="M 43.78125 22.039062 
L 213.907211 22.039062 
" clip-path="url(#p87104506ea)" style="fill: none; stroke-dasharray: 0.8,1.32; stroke-dashoffset: 0; stroke: #b0b0b0; stroke-width: 0.8"/>
     </g>
     <g id="line2d_14">
      <g>
       <use xlink:href="#m83c5d4c589" x="43.78125" y="22.039062" style="stroke: #000000; stroke-width: 0.8"/>
      </g>
     </g>
     <g id="text_8">
      <!-- 1.0 -->
      <g transform="translate(20.878125 25.838281) scale(0.1 -0.1)">
       <defs>
        <path id="DejaVuSans-31" d="M 794 531 
L 1825 531 
L 1825 4091 
L 703 3866 
L 703 4441 
L 1819 4666 
L 2450 4666 
L 2450 531 
L 3481 531 
L 3481 0 
L 794 0 
L 794 531 
z
" transform="scale(0.015625)"/>
       </defs>
       <use xlink:href="#DejaVuSans-31"/>
       <use xlink:href="#DejaVuSans-2e" transform="translate(63.623047 0)"/>
       <use xlink:href="#DejaVuSans-30" transform="translate(95.410156 0)"/>
      </g>
     </g>
    </g>
    <g id="text_9">
     <!-- Recall -->
     <g transform="translate(14.798438 78.71444) rotate(-90) scale(0.1 -0.1)">
      <defs>
       <path id="DejaVuSans-52" d="M 2841 2188 
Q 3044 2119 3236 1894 
Q 3428 1669 3622 1275 
L 4263 0 
L 3584 0 
L 2988 1197 
Q 2756 1666 2539 1819 
Q 2322 1972 1947 1972 
L 1259 1972 
L 1259 0 
L 628 0 
L 628 4666 
L 2053 4666 
Q 2853 4666 3247 4331 
Q 3641 3997 3641 3322 
Q 3641 2881 3436 2590 
Q 3231 2300 2841 2188 
z
M 1259 4147 
L 1259 2491 
L 2053 2491 
Q 2509 2491 2742 2702 
Q 2975 2913 2975 3322 
Q 2975 3731 2742 3939 
Q 2509 4147 2053 4147 
L 1259 4147 
z
" transform="scale(0.015625)"/>
       <path id="DejaVuSans-63" d="M 3122 3366 
L 3122 2828 
Q 2878 2963 2633 3030 
Q 2388 3097 2138 3097 
Q 1578 3097 1268 2742 
Q 959 2388 959 1747 
Q 959 1106 1268 751 
Q 1578 397 2138 397 
Q 2388 397 2633 464 
Q 2878 531 3122 666 
L 3122 134 
Q 2881 22 2623 -34 
Q 2366 -91 2075 -91 
Q 1284 -91 818 406 
Q 353 903 353 1747 
Q 353 2603 823 3093 
Q 1294 3584 2113 3584 
Q 2378 3584 2631 3529 
Q 2884 3475 3122 3366 
z
" transform="scale(0.015625)"/>
       <path id="DejaVuSans-6c" d="M 603 4863 
L 1178 4863 
L 1178 0 
L 603 0 
L 603 4863 
z
" transform="scale(0.015625)"/>
      </defs>
      <use xlink:href="#DejaVuSans-52"/>
      <use xlink:href="#DejaVuSans-65" transform="translate(64.982422 0)"/>
      <use xlink:href="#DejaVuSans-63" transform="translate(126.505859 0)"/>
      <use xlink:href="#DejaVuSans-61" transform="translate(181.486328 0)"/>
      <use xlink:href="#DejaVuSans-6c" transform="translate(242.765625 0)"/>
      <use xlink:href="#DejaVuSans-6c" transform="translate(270.548828 0)"/>
     </g>
    </g>
   </g>
   <g id="line2d_15">
    <path d="M 173.69562 102.462244 
L 114.924834 43.691457 
" clip-path="url(#p87104506ea)" style="fill: none; stroke-dasharray: 7.4,3.2; stroke-dashoffset: 0; stroke: #d62728; stroke-width: 2"/>
   </g>
   <g id="line2d_16">
    <path d="M 173.69562 102.462244 
L 136.577228 22.039062 
" clip-path="url(#p87104506ea)" style="fill: none; stroke-dasharray: 7.4,3.2; stroke-dashoffset: 0; stroke: #d62728; stroke-width: 2"/>
   </g>
   <g id="line2d_17">
    <path d="M 43.78125 114.835041 
L 44.718583 113.897708 
L 45.655916 112.960375 
L 46.593249 112.023042 
L 47.530582 111.085709 
L 48.467916 110.148375 
L 49.405249 109.211042 
L 50.342582 108.273709 
L 51.279915 107.336376 
L 52.217248 106.399043 
L 53.154581 105.46171 
L 54.091914 104.524377 
L 55.029247 103.587044 
L 55.966581 102.64971 
L 56.903914 101.712377 
L 57.841247 100.775044 
L 58.77858 99.837711 
L 59.715913 98.900378 
L 60.653246 97.963045 
L 61.590579 97.025712 
L 62.527912 96.088379 
L 63.465245 95.151046 
L 64.402579 94.213712 
L 65.339912 93.276379 
L 66.277245 92.339046 
L 67.214578 91.401713 
L 68.151911 90.46438 
L 69.089244 89.527047 
L 70.026577 88.589714 
L 70.96391 87.652381 
L 71.901243 86.715048 
L 72.838577 85.777714 
L 73.77591 84.840381 
L 74.713243 83.903048 
L 75.650576 82.965715 
L 76.587909 82.028382 
L 77.525242 81.091049 
L 78.462575 80.153716 
L 79.399908 79.216383 
L 80.337242 78.279049 
L 81.274575 77.341716 
L 82.211908 76.404383 
L 83.149241 75.46705 
L 84.086574 74.529717 
L 85.023907 73.592384 
L 85.96124 72.655051 
L 86.898573 71.717718 
L 87.835906 70.780385 
L 88.77324 69.843051 
L 89.710573 68.905718 
L 90.647906 67.968385 
L 91.585239 67.031052 
L 92.522572 66.093719 
L 93.459905 65.156386 
L 94.397238 64.219053 
L 95.334571 63.28172 
L 96.271904 62.344386 
L 97.209238 61.407053 
L 98.146571 60.46972 
L 99.083904 59.532387 
L 100.021237 58.595054 
L 100.95857 57.657721 
L 101.895903 56.720388 
L 102.833236 55.783055 
L 103.770569 54.845722 
L 104.707903 53.908388 
L 105.645236 52.971055 
L 106.582569 52.033722 
L 107.519902 51.096389 
L 108.457235 50.159056 
L 109.394568 49.221723 
L 110.331901 48.28439 
L 111.269234 47.347057 
L 112.206567 46.409724 
L 113.143901 45.47239 
L 114.081234 44.535057 
L 115.018567 43.597724 
L 115.9559 42.660391 
L 116.893233 41.723058 
L 117.830566 40.785725 
L 118.767899 39.848392 
L 119.705232 38.911059 
L 120.642566 37.973725 
L 121.579899 37.036392 
L 122.517232 36.099059 
L 123.454565 35.161726 
L 124.391898 34.224393 
L 125.329231 33.28706 
L 126.266564 32.349727 
L 127.203897 31.412394 
L 128.14123 30.475061 
L 129.078564 29.537727 
L 130.015897 28.600394 
L 130.95323 27.663061 
L 131.890563 26.725728 
L 132.827896 25.788395 
L 133.765229 24.851062 
L 134.702562 23.913729 
L 135.639895 22.976396 
L 136.577228 22.039062 
" clip-path="url(#p87104506ea)" style="fill: none; stroke: #000000; stroke-width: 2; stroke-linecap: square"/>
   </g>
   <g id="text_10">
    <path d="M 144.318039 71.197163 
Q 144.182102 71.123726 144.005539 71.084663 
Q 143.830539 71.045601 143.630539 71.045601 
Q 142.911789 71.045601 142.374289 71.590913 
Q 141.838352 72.134663 141.661789 73.048726 
L 141.110227 75.836226 
L 140.211789 75.836226 
L 141.280539 70.367476 
L 142.178977 70.367476 
L 142.008664 71.217476 
Q 142.364914 70.744038 142.860227 70.490913 
Q 143.357102 70.236226 143.918039 70.236226 
Q 144.064914 70.236226 144.205539 70.253413 
Q 144.347727 70.269038 144.489914 70.308101 
L 144.318039 71.197163 
z
M 145.31468 76.896069 
L 147.724211 76.896069 
L 147.724211 77.476851 
L 144.484524 77.476851 
L 144.484524 76.896069 
Q 144.87718 76.489194 145.555305 75.804507 
Q 146.234524 75.118726 146.40843 74.919663 
Q 146.739836 74.547788 146.871086 74.289663 
Q 147.00343 74.031538 147.00343 73.782163 
Q 147.00343 73.375288 146.717961 73.119351 
Q 146.432492 72.862319 145.974211 72.862319 
Q 145.649367 72.862319 145.28843 72.974976 
Q 144.928586 73.087632 144.51843 73.317319 
L 144.51843 72.619507 
Q 144.935149 72.452163 145.29718 72.366851 
Q 145.660305 72.281538 145.961086 72.281538 
Q 146.754055 72.281538 147.225461 72.678569 
Q 147.696867 73.074507 147.696867 73.737319 
Q 147.696867 74.052319 147.578742 74.334507 
Q 147.461711 74.615601 147.149992 74.998413 
Q 147.06468 75.097944 146.606399 75.571538 
Q 146.149211 76.045132 145.31468 76.896069 
z
" clip-path="url(#p87104506ea)" style="fill: #d62728; stroke: #ffffff; stroke-width: 8"/>
    <path d="M 144.318039 71.197163 
Q 144.182102 71.123726 144.005539 71.084663 
Q 143.830539 71.045601 143.630539 71.045601 
Q 142.911789 71.045601 142.374289 71.590913 
Q 141.838352 72.134663 141.661789 73.048726 
L 141.110227 75.836226 
L 140.211789 75.836226 
L 141.280539 70.367476 
L 142.178977 70.367476 
L 142.008664 71.217476 
Q 142.364914 70.744038 142.860227 70.490913 
Q 143.357102 70.236226 143.918039 70.236226 
Q 144.064914 70.236226 144.205539 70.253413 
Q 144.347727 70.269038 144.489914 70.308101 
L 144.318039 71.197163 
z
M 145.31468 76.896069 
L 147.724211 76.896069 
L 147.724211 77.476851 
L 144.484524 77.476851 
L 144.484524 76.896069 
Q 144.87718 76.489194 145.555305 75.804507 
Q 146.234524 75.118726 146.40843 74.919663 
Q 146.739836 74.547788 146.871086 74.289663 
Q 147.00343 74.031538 147.00343 73.782163 
Q 147.00343 73.375288 146.717961 73.119351 
Q 146.432492 72.862319 145.974211 72.862319 
Q 145.649367 72.862319 145.28843 72.974976 
Q 144.928586 73.087632 144.51843 73.317319 
L 144.51843 72.619507 
Q 144.935149 72.452163 145.29718 72.366851 
Q 145.660305 72.281538 145.961086 72.281538 
Q 146.754055 72.281538 147.225461 72.678569 
Q 147.696867 73.074507 147.696867 73.737319 
Q 147.696867 74.052319 147.578742 74.334507 
Q 147.461711 74.615601 147.149992 74.998413 
Q 147.06468 75.097944 146.606399 75.571538 
Q 146.149211 76.045132 145.31468 76.896069 
z
" clip-path="url(#p87104506ea)" style="fill: #d62728"/>
   </g>
   <g id="text_11">
    <path d="M 155.144237 60.370966 
Q 155.008299 60.297528 154.831737 60.258466 
Q 154.656737 60.219403 154.456737 60.219403 
Q 153.737987 60.219403 153.200487 60.764716 
Q 152.664549 61.308466 152.487987 62.222528 
L 151.936424 65.010028 
L 151.037987 65.010028 
L 152.106737 59.541278 
L 153.005174 59.541278 
L 152.834862 60.391278 
Q 153.191112 59.917841 153.686424 59.664716 
Q 154.183299 59.410028 154.744237 59.410028 
Q 154.891112 59.410028 155.031737 59.427216 
Q 155.173924 59.442841 155.316112 59.481903 
L 155.144237 60.370966 
z
M 155.66619 66.069872 
L 156.793846 66.069872 
L 156.793846 62.176122 
L 155.566659 62.422216 
L 155.566659 61.793309 
L 156.787284 61.547216 
L 157.47744 61.547216 
L 157.47744 66.069872 
L 158.605096 66.069872 
L 158.605096 66.650653 
L 155.66619 66.650653 
L 155.66619 66.069872 
z
" clip-path="url(#p87104506ea)" style="fill: #d62728; stroke: #ffffff; stroke-width: 8"/>
    <path d="M 155.144237 60.370966 
Q 155.008299 60.297528 154.831737 60.258466 
Q 154.656737 60.219403 154.456737 60.219403 
Q 153.737987 60.219403 153.200487 60.764716 
Q 152.664549 61.308466 152.487987 62.222528 
L 151.936424 65.010028 
L 151.037987 65.010028 
L 152.106737 59.541278 
L 153.005174 59.541278 
L 152.834862 60.391278 
Q 153.191112 59.917841 153.686424 59.664716 
Q 154.183299 59.410028 154.744237 59.410028 
Q 154.891112 59.410028 155.031737 59.427216 
Q 155.173924 59.442841 155.316112 59.481903 
L 155.144237 60.370966 
z
M 155.66619 66.069872 
L 156.793846 66.069872 
L 156.793846 62.176122 
L 155.566659 62.422216 
L 155.566659 61.793309 
L 156.787284 61.547216 
L 157.47744 61.547216 
L 157.47744 66.069872 
L 158.605096 66.069872 
L 158.605096 66.650653 
L 155.66619 66.650653 
L 155.66619 66.069872 
z
" clip-path="url(#p87104506ea)" style="fill: #d62728"/>
   </g>
   <g id="text_12">
    <path d="M 50.240719 103.114256 
L 52.177529 105.051065 
L 53.054783 104.173811 
Q 53.542024 103.68657 53.555282 103.169498 
Q 53.569645 102.651322 53.103397 102.185073 
Q 52.640463 101.722139 52.122286 101.736502 
Q 51.605214 101.74976 51.117973 102.237001 
L 50.240719 103.114256 
z
M 48.970137 103.237999 
L 50.544554 101.663582 
Q 51.411865 100.796271 52.247135 100.745448 
Q 53.083509 100.69352 53.83923 101.44924 
Q 54.602684 102.212694 54.548546 103.046859 
Q 54.495513 103.87992 53.628202 104.74723 
L 52.750948 105.624485 
L 54.82255 107.696086 
L 54.125387 108.39325 
L 48.970137 103.237999 
z
M 57.20503 98.766239 
Q 57.035988 98.811538 56.881308 98.908766 
Q 56.725524 99.004888 56.574159 99.156253 
Q 56.03499 99.695422 56.096861 100.334028 
Q 56.158733 100.972633 56.815017 101.628917 
L 58.852368 103.666268 
L 58.213762 104.304874 
L 54.346772 100.437884 
L 54.985378 99.799278 
L 55.586419 100.400319 
Q 55.435054 99.846787 55.585314 99.356232 
Q 55.735574 98.863467 56.195193 98.403847 
Q 56.26038 98.338661 56.348768 98.26795 
Q 56.436052 98.196135 56.549852 98.11769 
L 57.20503 98.766239 
z
M 62.201458 96.13199 
L 62.511922 96.442454 
L 59.590687 99.363689 
Q 60.288955 99.977988 60.986118 99.968045 
Q 61.683281 99.958101 62.315258 99.326124 
Q 62.680965 98.960418 62.935081 98.527315 
Q 63.189198 98.094212 63.348297 97.57493 
L 63.949337 98.175971 
Q 63.751569 98.663212 63.468726 99.098524 
Q 63.185883 99.533837 62.816862 99.902858 
Q 61.890994 100.828726 60.812656 100.830936 
Q 59.733213 100.832041 58.813974 99.912802 
Q 57.864905 98.963732 57.82071 97.894233 
Q 57.775411 96.823629 58.646037 95.953004 
Q 59.426064 95.172977 60.382868 95.22159 
Q 61.338567 95.269099 62.201458 96.13199 
z
M 61.379446 96.580561 
Q 60.852431 96.066804 60.256914 96.041392 
Q 59.660293 96.014876 59.19073 96.484439 
Q 58.659295 97.015874 58.640512 97.635697 
Q 58.62173 98.25552 59.118914 98.849932 
L 61.379446 96.580561 
z
M 64.40067 90.680087 
L 64.995082 91.274498 
Q 64.576342 91.394927 64.231628 91.591591 
Q 63.886913 91.788256 63.6107 92.064469 
Q 62.991981 92.683188 63.0417 93.417916 
Q 63.091418 94.150434 63.79963 94.858646 
Q 64.507841 95.566857 65.241465 95.617681 
Q 65.975088 95.666294 66.593806 95.047576 
Q 66.87002 94.771362 67.066684 94.426648 
Q 67.263348 94.081933 67.383777 93.663193 
L 67.97156 94.250976 
Q 67.829034 94.640989 67.605853 94.987914 
Q 67.384882 95.334838 67.063369 95.656351 
Q 66.18943 96.53029 65.125455 96.49604 
Q 64.062585 96.460685 63.130088 95.528187 
Q 62.184333 94.582432 62.162236 93.521772 
Q 62.140138 92.458902 63.045014 91.554026 
Q 63.337801 91.26124 63.678096 91.042479 
Q 64.017286 90.822613 64.40067 90.680087 
z
M 65.357198 89.427458 
L 65.992489 88.792167 
L 69.85948 92.659157 
L 69.224188 93.294448 
L 65.357198 89.427458 
z
M 63.851282 87.921542 
L 64.486573 87.28625 
L 65.292012 88.091689 
L 64.65672 88.72698 
L 63.851282 87.921542 
z
M 69.900497 85.111759 
L 70.501538 85.7128 
Q 70.094952 85.843172 69.735874 86.065248 
Q 69.376796 86.285114 69.065227 86.596683 
Q 68.59235 87.069561 68.500647 87.450735 
Q 68.408944 87.83191 68.699521 88.122487 
Q 68.920491 88.343458 69.215488 88.300368 
Q 69.510484 88.257279 70.135831 87.859532 
L 70.402101 87.690489 
Q 71.223008 87.159054 71.772121 87.138062 
Q 72.321233 87.117069 72.794111 87.589947 
Q 73.33328 88.129116 73.221689 88.870473 
Q 73.108994 89.610726 72.363218 90.356502 
Q 72.052754 90.666966 71.655006 90.94318 
Q 71.257258 91.219394 70.764493 91.4713 
L 70.10821 90.815017 
Q 70.644064 90.645974 71.077167 90.396277 
Q 71.509165 90.145475 71.845041 89.809599 
Q 72.293612 89.361029 72.380895 88.966596 
Q 72.469284 88.571058 72.189756 88.29153 
Q 71.93122 88.032994 71.618546 88.069454 
Q 71.306977 88.104809 70.587717 88.567743 
L 70.314818 88.736786 
Q 69.601082 89.203034 69.080695 89.208559 
Q 68.561414 89.212978 68.112843 88.764407 
Q 67.567045 88.218609 67.657643 87.535809 
Q 67.747136 86.851904 68.458662 86.140378 
Q 68.810006 85.789035 69.172398 85.530499 
Q 69.534791 85.269753 69.900497 85.111759 
z
M 71.005766 83.77889 
L 71.641057 83.143599 
L 75.508047 87.010589 
L 74.872756 87.64588 
L 71.005766 83.77889 
z
M 69.499849 82.272974 
L 70.135141 81.637682 
L 70.94058 82.443121 
L 70.305288 83.078412 
L 69.499849 82.272974 
z
M 74.913774 80.761395 
Q 74.403331 81.271838 74.504978 81.967896 
Q 74.606624 82.663954 75.300473 83.357803 
Q 75.994321 84.051651 76.68817 84.155507 
Q 77.383123 84.258259 77.896881 83.744502 
Q 78.405114 83.236269 78.301257 82.54021 
Q 78.197401 81.841942 77.506867 81.151408 
Q 76.819648 80.464189 76.120275 80.359228 
Q 75.422007 80.253162 74.913774 80.761395 
z
M 74.37571 80.223331 
Q 75.204351 79.39469 76.216397 79.460981 
Q 77.228444 79.525063 78.180828 80.477447 
Q 79.129898 81.426517 79.197294 82.441878 
Q 79.26469 83.45503 78.43605 84.28367 
Q 77.604094 85.115626 76.592048 85.047125 
Q 75.580001 84.976414 74.630931 84.027344 
Q 73.678547 83.07496 73.611151 82.066228 
Q 73.543755 81.055286 74.37571 80.223331 
z
M 82.04409 75.805433 
L 84.378647 78.13999 
L 83.743356 78.775281 
L 81.429791 76.461716 
Q 80.880678 75.912603 80.394542 75.855151 
Q 79.907301 75.796594 79.479723 76.224172 
Q 78.96486 76.739034 78.995796 77.364382 
Q 79.025627 77.988625 79.592418 78.555415 
L 81.77782 80.740817 
L 81.139214 81.379423 
L 77.272224 77.512433 
L 77.910829 76.873827 
L 78.51187 77.474867 
Q 78.391441 76.897029 78.527338 76.416417 
Q 78.66434 75.934701 79.068717 75.530324 
Q 79.734944 74.864097 80.488455 74.934807 
Q 81.24307 75.004413 82.04409 75.805433 
z
M 84.764931 71.332292 
L 89.190978 66.906245 
L 89.771026 67.486294 
L 85.34498 71.91234 
L 84.764931 71.332292 
z
M 86.173621 72.740981 
L 90.599667 68.314934 
L 91.186345 68.901612 
L 86.760298 73.327659 
L 86.173621 72.740981 
z
M 95.689593 65.655688 
L 96.828698 64.516583 
L 92.895416 60.583302 
L 91.904362 62.071541 
L 91.269071 61.436249 
L 92.253496 59.95464 
L 92.950659 59.257477 
L 97.519232 63.826049 
L 98.658337 62.686944 
L 99.245014 63.273622 
L 96.276271 66.242366 
L 95.689593 65.655688 
z
" clip-path="url(#p87104506ea)" style="stroke: #ffffff; stroke-width: 8"/>
    <path d="M 50.240719 103.114256 
L 52.177529 105.051065 
L 53.054783 104.173811 
Q 53.542024 103.68657 53.555282 103.169498 
Q 53.569645 102.651322 53.103397 102.185073 
Q 52.640463 101.722139 52.122286 101.736502 
Q 51.605214 101.74976 51.117973 102.237001 
L 50.240719 103.114256 
z
M 48.970137 103.237999 
L 50.544554 101.663582 
Q 51.411865 100.796271 52.247135 100.745448 
Q 53.083509 100.69352 53.83923 101.44924 
Q 54.602684 102.212694 54.548546 103.046859 
Q 54.495513 103.87992 53.628202 104.74723 
L 52.750948 105.624485 
L 54.82255 107.696086 
L 54.125387 108.39325 
L 48.970137 103.237999 
z
M 57.20503 98.766239 
Q 57.035988 98.811538 56.881308 98.908766 
Q 56.725524 99.004888 56.574159 99.156253 
Q 56.03499 99.695422 56.096861 100.334028 
Q 56.158733 100.972633 56.815017 101.628917 
L 58.852368 103.666268 
L 58.213762 104.304874 
L 54.346772 100.437884 
L 54.985378 99.799278 
L 55.586419 100.400319 
Q 55.435054 99.846787 55.585314 99.356232 
Q 55.735574 98.863467 56.195193 98.403847 
Q 56.26038 98.338661 56.348768 98.26795 
Q 56.436052 98.196135 56.549852 98.11769 
L 57.20503 98.766239 
z
M 62.201458 96.13199 
L 62.511922 96.442454 
L 59.590687 99.363689 
Q 60.288955 99.977988 60.986118 99.968045 
Q 61.683281 99.958101 62.315258 99.326124 
Q 62.680965 98.960418 62.935081 98.527315 
Q 63.189198 98.094212 63.348297 97.57493 
L 63.949337 98.175971 
Q 63.751569 98.663212 63.468726 99.098524 
Q 63.185883 99.533837 62.816862 99.902858 
Q 61.890994 100.828726 60.812656 100.830936 
Q 59.733213 100.832041 58.813974 99.912802 
Q 57.864905 98.963732 57.82071 97.894233 
Q 57.775411 96.823629 58.646037 95.953004 
Q 59.426064 95.172977 60.382868 95.22159 
Q 61.338567 95.269099 62.201458 96.13199 
z
M 61.379446 96.580561 
Q 60.852431 96.066804 60.256914 96.041392 
Q 59.660293 96.014876 59.19073 96.484439 
Q 58.659295 97.015874 58.640512 97.635697 
Q 58.62173 98.25552 59.118914 98.849932 
L 61.379446 96.580561 
z
M 64.40067 90.680087 
L 64.995082 91.274498 
Q 64.576342 91.394927 64.231628 91.591591 
Q 63.886913 91.788256 63.6107 92.064469 
Q 62.991981 92.683188 63.0417 93.417916 
Q 63.091418 94.150434 63.79963 94.858646 
Q 64.507841 95.566857 65.241465 95.617681 
Q 65.975088 95.666294 66.593806 95.047576 
Q 66.87002 94.771362 67.066684 94.426648 
Q 67.263348 94.081933 67.383777 93.663193 
L 67.97156 94.250976 
Q 67.829034 94.640989 67.605853 94.987914 
Q 67.384882 95.334838 67.063369 95.656351 
Q 66.18943 96.53029 65.125455 96.49604 
Q 64.062585 96.460685 63.130088 95.528187 
Q 62.184333 94.582432 62.162236 93.521772 
Q 62.140138 92.458902 63.045014 91.554026 
Q 63.337801 91.26124 63.678096 91.042479 
Q 64.017286 90.822613 64.40067 90.680087 
z
M 65.357198 89.427458 
L 65.992489 88.792167 
L 69.85948 92.659157 
L 69.224188 93.294448 
L 65.357198 89.427458 
z
M 63.851282 87.921542 
L 64.486573 87.28625 
L 65.292012 88.091689 
L 64.65672 88.72698 
L 63.851282 87.921542 
z
M 69.900497 85.111759 
L 70.501538 85.7128 
Q 70.094952 85.843172 69.735874 86.065248 
Q 69.376796 86.285114 69.065227 86.596683 
Q 68.59235 87.069561 68.500647 87.450735 
Q 68.408944 87.83191 68.699521 88.122487 
Q 68.920491 88.343458 69.215488 88.300368 
Q 69.510484 88.257279 70.135831 87.859532 
L 70.402101 87.690489 
Q 71.223008 87.159054 71.772121 87.138062 
Q 72.321233 87.117069 72.794111 87.589947 
Q 73.33328 88.129116 73.221689 88.870473 
Q 73.108994 89.610726 72.363218 90.356502 
Q 72.052754 90.666966 71.655006 90.94318 
Q 71.257258 91.219394 70.764493 91.4713 
L 70.10821 90.815017 
Q 70.644064 90.645974 71.077167 90.396277 
Q 71.509165 90.145475 71.845041 89.809599 
Q 72.293612 89.361029 72.380895 88.966596 
Q 72.469284 88.571058 72.189756 88.29153 
Q 71.93122 88.032994 71.618546 88.069454 
Q 71.306977 88.104809 70.587717 88.567743 
L 70.314818 88.736786 
Q 69.601082 89.203034 69.080695 89.208559 
Q 68.561414 89.212978 68.112843 88.764407 
Q 67.567045 88.218609 67.657643 87.535809 
Q 67.747136 86.851904 68.458662 86.140378 
Q 68.810006 85.789035 69.172398 85.530499 
Q 69.534791 85.269753 69.900497 85.111759 
z
M 71.005766 83.77889 
L 71.641057 83.143599 
L 75.508047 87.010589 
L 74.872756 87.64588 
L 71.005766 83.77889 
z
M 69.499849 82.272974 
L 70.135141 81.637682 
L 70.94058 82.443121 
L 70.305288 83.078412 
L 69.499849 82.272974 
z
M 74.913774 80.761395 
Q 74.403331 81.271838 74.504978 81.967896 
Q 74.606624 82.663954 75.300473 83.357803 
Q 75.994321 84.051651 76.68817 84.155507 
Q 77.383123 84.258259 77.896881 83.744502 
Q 78.405114 83.236269 78.301257 82.54021 
Q 78.197401 81.841942 77.506867 81.151408 
Q 76.819648 80.464189 76.120275 80.359228 
Q 75.422007 80.253162 74.913774 80.761395 
z
M 74.37571 80.223331 
Q 75.204351 79.39469 76.216397 79.460981 
Q 77.228444 79.525063 78.180828 80.477447 
Q 79.129898 81.426517 79.197294 82.441878 
Q 79.26469 83.45503 78.43605 84.28367 
Q 77.604094 85.115626 76.592048 85.047125 
Q 75.580001 84.976414 74.630931 84.027344 
Q 73.678547 83.07496 73.611151 82.066228 
Q 73.543755 81.055286 74.37571 80.223331 
z
M 82.04409 75.805433 
L 84.378647 78.13999 
L 83.743356 78.775281 
L 81.429791 76.461716 
Q 80.880678 75.912603 80.394542 75.855151 
Q 79.907301 75.796594 79.479723 76.224172 
Q 78.96486 76.739034 78.995796 77.364382 
Q 79.025627 77.988625 79.592418 78.555415 
L 81.77782 80.740817 
L 81.139214 81.379423 
L 77.272224 77.512433 
L 77.910829 76.873827 
L 78.51187 77.474867 
Q 78.391441 76.897029 78.527338 76.416417 
Q 78.66434 75.934701 79.068717 75.530324 
Q 79.734944 74.864097 80.488455 74.934807 
Q 81.24307 75.004413 82.04409 75.805433 
z
M 84.764931 71.332292 
L 89.190978 66.906245 
L 89.771026 67.486294 
L 85.34498 71.91234 
L 84.764931 71.332292 
z
M 86.173621 72.740981 
L 90.599667 68.314934 
L 91.186345 68.901612 
L 86.760298 73.327659 
L 86.173621 72.740981 
z
M 95.689593 65.655688 
L 96.828698 64.516583 
L 92.895416 60.583302 
L 91.904362 62.071541 
L 91.269071 61.436249 
L 92.253496 59.95464 
L 92.950659 59.257477 
L 97.519232 63.826049 
L 98.658337 62.686944 
L 99.245014 63.273622 
L 96.276271 66.242366 
L 95.689593 65.655688 
z
" clip-path="url(#p87104506ea)"/>
   </g>
   <g id="patch_3">
    <path d="M 43.78125 114.835041 
L 43.78125 12.759465 
" style="fill: none; stroke: #000000; stroke-width: 0.8; stroke-linejoin: miter; stroke-linecap: square"/>
   </g>
   <g id="patch_4">
    <path d="M 43.78125 114.835041 
L 213.907211 114.835041 
" style="fill: none; stroke: #000000; stroke-width: 0.8; stroke-linejoin: miter; stroke-linecap: square"/>
   </g>
   <g id="PathCollection_1">
    <defs>
     <path id="m2a995c4b58" d="M 0 3.535534 
C 0.937635 3.535534 1.836992 3.163008 2.5 2.5 
C 3.163008 1.836992 3.535534 0.937635 3.535534 0 
C 3.535534 -0.937635 3.163008 -1.836992 2.5 -2.5 
C 1.836992 -3.163008 0.937635 -3.535534 0 -3.535534 
C -0.937635 -3.535534 -1.836992 -3.163008 -2.5 -2.5 
C -3.163008 -1.836992 -3.535534 -0.937635 -3.535534 0 
C -3.535534 0.937635 -3.163008 1.836992 -2.5 2.5 
C -1.836992 3.163008 -0.937635 3.535534 0 3.535534 
z
" style="stroke: #000000"/>
    </defs>
    <g clip-path="url(#p87104506ea)">
     <use xlink:href="#m2a995c4b58" x="136.577228" y="22.039062" style="fill: #d62728; stroke: #000000"/>
    </g>
   </g>
   <g id="text_13">
    <!-- Target -->
    <g transform="translate(106.577228 14.798438) scale(0.1 -0.1)">
     <defs>
      <path id="DejaVuSans-54" d="M -19 4666 
L 3928 4666 
L 3928 4134 
L 2272 4134 
L 2272 0 
L 1638 0 
L 1638 4134 
L -19 4134 
L -19 4666 
z
" transform="scale(0.015625)"/>
     </defs>
     <use xlink:href="#DejaVuSans-54"/>
     <use xlink:href="#DejaVuSans-61" transform="translate(44.583984 0)"/>
     <use xlink:href="#DejaVuSans-72" transform="translate(105.863281 0)"/>
     <use xlink:href="#DejaVuSans-67" transform="translate(145.226562 0)"/>
     <use xlink:href="#DejaVuSans-65" transform="translate(208.703125 0)"/>
     <use xlink:href="#DejaVuSans-74" transform="translate(270.226562 0)"/>
    </g>
   </g>
   <g id="PathCollection_2">
    <g clip-path="url(#p87104506ea)">
     <use xlink:href="#m2a995c4b58" x="173.69562" y="102.462244" style="fill: #d62728; stroke: #000000"/>
    </g>
   </g>
   <g id="text_14">
    <!-- Result -->
    <g transform="translate(138.69562 110.221619) scale(0.1 -0.1)">
     <defs>
      <path id="DejaVuSans-73" d="M 2834 3397 
L 2834 2853 
Q 2591 2978 2328 3040 
Q 2066 3103 1784 3103 
Q 1356 3103 1142 2972 
Q 928 2841 928 2578 
Q 928 2378 1081 2264 
Q 1234 2150 1697 2047 
L 1894 2003 
Q 2506 1872 2764 1633 
Q 3022 1394 3022 966 
Q 3022 478 2636 193 
Q 2250 -91 1575 -91 
Q 1294 -91 989 -36 
Q 684 19 347 128 
L 347 722 
Q 666 556 975 473 
Q 1284 391 1588 391 
Q 1994 391 2212 530 
Q 2431 669 2431 922 
Q 2431 1156 2273 1281 
Q 2116 1406 1581 1522 
L 1381 1569 
Q 847 1681 609 1914 
Q 372 2147 372 2553 
Q 372 3047 722 3315 
Q 1072 3584 1716 3584 
Q 2034 3584 2315 3537 
Q 2597 3491 2834 3397 
z
" transform="scale(0.015625)"/>
      <path id="DejaVuSans-75" d="M 544 1381 
L 544 3500 
L 1119 3500 
L 1119 1403 
Q 1119 906 1312 657 
Q 1506 409 1894 409 
Q 2359 409 2629 706 
Q 2900 1003 2900 1516 
L 2900 3500 
L 3475 3500 
L 3475 0 
L 2900 0 
L 2900 538 
Q 2691 219 2414 64 
Q 2138 -91 1772 -91 
Q 1169 -91 856 284 
Q 544 659 544 1381 
z
M 1991 3584 
L 1991 3584 
z
" transform="scale(0.015625)"/>
     </defs>
     <use xlink:href="#DejaVuSans-52"/>
     <use xlink:href="#DejaVuSans-65" transform="translate(64.982422 0)"/>
     <use xlink:href="#DejaVuSans-73" transform="translate(126.505859 0)"/>
     <use xlink:href="#DejaVuSans-75" transform="translate(178.605469 0)"/>
     <use xlink:href="#DejaVuSans-6c" transform="translate(241.984375 0)"/>
     <use xlink:href="#DejaVuSans-74" transform="translate(269.767578 0)"/>
    </g>
   </g>
  </g>
 </g>
 <defs>
  <clipPath id="p87104506ea">
   <rect x="43.78125" y="12.759465" width="170.125961" height="102.075576"/>
  </clipPath>
 </defs>
</svg>
