<?xml version="1.0" encoding="utf-8" standalone="no"?>
<!DOCTYPE svg PUBLIC "-//W3C//DTD SVG 1.1//EN"
  "http://www.w3.org/Graphics/SVG/1.1/DTD/svg11.dtd">
<svg xmlns:xlink="http://www.w3.org/1999/xlink" width="720pt" height="180pt" viewBox="0 0 720 180" xmlns="http://www.w3.org/2000/svg" version="1.1">
 <metadata>
  <rdf:RDF xmlns:dc="http://purl.org/dc/elements/1.1/" xmlns:cc="http://creativecommons.org/ns#" xmlns:rdf="http://www.w3.org/1999/02/22-rdf-syntax-ns#">
   <cc:Work>
    <dc:type rdf:resource="http://purl.org/dc/dcmitype/StillImage"/>
    <dc:date>2026-01-28T18:16:25.040920</dc:date>
    <dc:format>image/svg+xml</dc:format>
    <dc:creator>
     <cc:Agent>
      <dc:title>Matplotlib v3.10.8, https://matplotlib.org/</dc:title>
     </cc:Agent>
    </dc:creator>
   </cc:Work>
  </rdf:RDF>
 </metadata>
 <defs>
  <style type="text/css">*{stroke-linejoin: round; stroke-linecap: butt}</style>
 </defs>
 <g id="figure_1">
  <g id="patch_1">
   <path d="M 0 180 
L 720 180 
L 720 0 
L 0 0 
z
" style="fill: #ffffff"/>
  </g>
  <g id="axes_1">
   <g id="patch_2">
    <path d="M 16.678365 70.071635 
L 716.99976 70.071635 
L 716.99976 3.00024 
L 16.678365 3.00024 
z
" style="fill: #ffffff"/>
   </g>
   <g id="patch_3">
    <path d="M 16.678365 70.071635 
L 103.783016 70.071635 
L 103.783016 3.00024 
L 16.678365 3.00024 
z
" clip-path="url(#p3e7331ec84)" style="fill: #1f77b4; opacity: 0.4; stroke: #1f77b4; stroke-linejoin: miter"/>
   </g>
   <g id="patch_4">
    <path d="M 103.783016 70.071635 
L 121.203946 70.071635 
L 121.203946 3.00024 
L 103.783016 3.00024 
z
" clip-path="url(#p3e7331ec84)" style="fill: #1f77b4; opacity: 0.4; stroke: #1f77b4; stroke-linejoin: miter"/>
   </g>
   <g id="patch_5">
    <path d="M 121.203946 70.071635 
L 131.656504 70.071635 
L 131.656504 3.00024 
L 121.203946 3.00024 
z
" clip-path="url(#p3e7331ec84)" style="fill: #1f77b4; opacity: 0.4; stroke: #1f77b4; stroke-linejoin: miter"/>
   </g>
   <g id="patch_6">
    <path d="M 131.656504 70.071635 
L 142.109063 70.071635 
L 142.109063 3.00024 
L 131.656504 3.00024 
z
" clip-path="url(#p3e7331ec84)" style="fill: #1f77b4; opacity: 0.4; stroke: #1f77b4; stroke-linejoin: miter"/>
   </g>
   <g id="patch_7">
    <path d="M 142.109063 70.071635 
L 156.045807 70.071635 
L 156.045807 3.00024 
L 142.109063 3.00024 
z
" clip-path="url(#p3e7331ec84)" style="fill: #1f77b4; opacity: 0.4; stroke: #1f77b4; stroke-linejoin: miter"/>
   </g>
   <g id="patch_8">
    <path d="M 156.045807 70.071635 
L 176.950923 70.071635 
L 176.950923 3.00024 
L 156.045807 3.00024 
z
" clip-path="url(#p3e7331ec84)" style="fill: #1f77b4; opacity: 0.4; stroke: #1f77b4; stroke-linejoin: miter"/>
   </g>
   <g id="patch_9">
    <path d="M 176.950923 70.071635 
L 197.856039 70.071635 
L 197.856039 3.00024 
L 176.950923 3.00024 
z
" clip-path="url(#p3e7331ec84)" style="fill: #1f77b4; opacity: 0.4; stroke: #1f77b4; stroke-linejoin: miter"/>
   </g>
   <g id="patch_10">
    <path d="M 197.856039 70.071635 
L 236.182086 70.071635 
L 236.182086 3.00024 
L 197.856039 3.00024 
z
" clip-path="url(#p3e7331ec84)" style="fill: #1f77b4; opacity: 0.4; stroke: #1f77b4; stroke-linejoin: miter"/>
   </g>
   <g id="patch_11">
    <path d="M 236.182086 70.071635 
L 277.992318 70.071635 
L 277.992318 3.00024 
L 236.182086 3.00024 
z
" clip-path="url(#p3e7331ec84)" style="fill: #1f77b4; opacity: 0.4; stroke: #1f77b4; stroke-linejoin: miter"/>
   </g>
   <g id="patch_12">
    <path d="M 277.992318 70.071635 
L 298.897435 70.071635 
L 298.897435 3.00024 
L 277.992318 3.00024 
z
" clip-path="url(#p3e7331ec84)" style="fill: #1f77b4; opacity: 0.4; stroke: #1f77b4; stroke-linejoin: miter"/>
   </g>
   <g id="patch_13">
    <path d="M 298.897435 70.071635 
L 333.739295 70.071635 
L 333.739295 3.00024 
L 298.897435 3.00024 
z
" clip-path="url(#p3e7331ec84)" style="fill: #1f77b4; opacity: 0.4; stroke: #1f77b4; stroke-linejoin: miter"/>
   </g>
   <g id="patch_14">
    <path d="M 333.739295 70.071635 
L 344.191853 70.071635 
L 344.191853 3.00024 
L 333.739295 3.00024 
z
" clip-path="url(#p3e7331ec84)" style="fill: #1f77b4; opacity: 0.4; stroke: #1f77b4; stroke-linejoin: miter"/>
   </g>
   <g id="patch_15">
    <path d="M 344.191853 70.071635 
L 358.128597 70.071635 
L 358.128597 3.00024 
L 344.191853 3.00024 
z
" clip-path="url(#p3e7331ec84)" style="fill: #1f77b4; opacity: 0.4; stroke: #1f77b4; stroke-linejoin: miter"/>
   </g>
   <g id="patch_16">
    <path d="M 358.128597 70.071635 
L 375.549528 70.071635 
L 375.549528 3.00024 
L 358.128597 3.00024 
z
" clip-path="url(#p3e7331ec84)" style="fill: #1f77b4; opacity: 0.4; stroke: #1f77b4; stroke-linejoin: miter"/>
   </g>
   <g id="patch_17">
    <path d="M 375.549528 70.071635 
L 399.93883 70.071635 
L 399.93883 3.00024 
L 375.549528 3.00024 
z
" clip-path="url(#p3e7331ec84)" style="fill: #1f77b4; opacity: 0.4; stroke: #1f77b4; stroke-linejoin: miter"/>
   </g>
   <g id="patch_18">
    <path d="M 399.93883 70.071635 
L 455.685807 70.071635 
L 455.685807 3.00024 
L 399.93883 3.00024 
z
" clip-path="url(#p3e7331ec84)" style="fill: #1f77b4; opacity: 0.4; stroke: #1f77b4; stroke-linejoin: miter"/>
   </g>
   <g id="patch_19">
    <path d="M 455.685807 70.071635 
L 473.106737 70.071635 
L 473.106737 3.00024 
L 455.685807 3.00024 
z
" clip-path="url(#p3e7331ec84)" style="fill: #1f77b4; opacity: 0.4; stroke: #1f77b4; stroke-linejoin: miter"/>
   </g>
   <g id="patch_20">
    <path d="M 473.106737 70.071635 
L 497.496039 70.071635 
L 497.496039 3.00024 
L 473.106737 3.00024 
z
" clip-path="url(#p3e7331ec84)" style="fill: #1f77b4; opacity: 0.4; stroke: #1f77b4; stroke-linejoin: miter"/>
   </g>
   <g id="patch_21">
    <path d="M 497.496039 70.071635 
L 535.822086 70.071635 
L 535.822086 3.00024 
L 497.496039 3.00024 
z
" clip-path="url(#p3e7331ec84)" style="fill: #1f77b4; opacity: 0.4; stroke: #1f77b4; stroke-linejoin: miter"/>
   </g>
   <g id="patch_22">
    <path d="M 535.822086 70.071635 
L 563.695574 70.071635 
L 563.695574 3.00024 
L 535.822086 3.00024 
z
" clip-path="url(#p3e7331ec84)" style="fill: #1f77b4; opacity: 0.4; stroke: #1f77b4; stroke-linejoin: miter"/>
   </g>
   <g id="patch_23">
    <path d="M 563.695574 70.071635 
L 650.800225 70.071635 
L 650.800225 3.00024 
L 563.695574 3.00024 
z
" clip-path="url(#p3e7331ec84)" style="fill: #1f77b4; opacity: 0.4; stroke: #1f77b4; stroke-linejoin: miter"/>
   </g>
   <g id="patch_24">
    <path d="M 650.800225 70.071635 
L 716.99976 70.071635 
L 716.99976 3.00024 
L 650.800225 3.00024 
z
" clip-path="url(#p3e7331ec84)" style="fill: #1f77b4; opacity: 0.4; stroke: #1f77b4; stroke-linejoin: miter"/>
   </g>
   <g id="matplotlib.axis_1">
    <g id="xtick_1">
     <g id="line2d_1">
      <defs>
       <path id="m2c2c5a338d" d="M 0 0 
L 0 3.5 
" style="stroke: #000000; stroke-width: 0.8"/>
      </defs>
      <g>
       <use xlink:href="#m2c2c5a338d" x="34.099295" y="70.071635" style="stroke: #000000; stroke-width: 0.8"/>
      </g>
     </g>
    </g>
    <g id="xtick_2">
     <g id="line2d_2">
      <g>
       <use xlink:href="#m2c2c5a338d" x="121.203946" y="70.071635" style="stroke: #000000; stroke-width: 0.8"/>
      </g>
     </g>
    </g>
    <g id="xtick_3">
     <g id="line2d_3">
      <g>
       <use xlink:href="#m2c2c5a338d" x="208.308597" y="70.071635" style="stroke: #000000; stroke-width: 0.8"/>
      </g>
     </g>
    </g>
    <g id="xtick_4">
     <g id="line2d_4">
      <g>
       <use xlink:href="#m2c2c5a338d" x="295.413249" y="70.071635" style="stroke: #000000; stroke-width: 0.8"/>
      </g>
     </g>
    </g>
    <g id="xtick_5">
     <g id="line2d_5">
      <g>
       <use xlink:href="#m2c2c5a338d" x="382.5179" y="70.071635" style="stroke: #000000; stroke-width: 0.8"/>
      </g>
     </g>
    </g>
    <g id="xtick_6">
     <g id="line2d_6">
      <g>
       <use xlink:href="#m2c2c5a338d" x="469.622551" y="70.071635" style="stroke: #000000; stroke-width: 0.8"/>
      </g>
     </g>
    </g>
    <g id="xtick_7">
     <g id="line2d_7">
      <g>
       <use xlink:href="#m2c2c5a338d" x="556.727202" y="70.071635" style="stroke: #000000; stroke-width: 0.8"/>
      </g>
     </g>
    </g>
    <g id="xtick_8">
     <g id="line2d_8">
      <g>
       <use xlink:href="#m2c2c5a338d" x="643.831853" y="70.071635" style="stroke: #000000; stroke-width: 0.8"/>
      </g>
     </g>
    </g>
   </g>
   <g id="matplotlib.axis_2">
    <g id="text_1">
     <!-- gold phones -->
     <g transform="translate(10.598678 67.174219) rotate(-90) scale(0.1 -0.1)">
      <defs>
       <path id="DejaVuSans-67" d="M 2906 1791 
Q 2906 2416 2648 2759 
Q 2391 3103 1925 3103 
Q 1463 3103 1205 2759 
Q 947 2416 947 1791 
Q 947 1169 1205 825 
Q 1463 481 1925 481 
Q 2391 481 2648 825 
Q 2906 1169 2906 1791 
z
M 3481 434 
Q 3481 -459 3084 -895 
Q 2688 -1331 1869 -1331 
Q 1566 -1331 1297 -1286 
Q 1028 -1241 775 -1147 
L 775 -588 
Q 1028 -725 1275 -790 
Q 1522 -856 1778 -856 
Q 2344 -856 2625 -561 
Q 2906 -266 2906 331 
L 2906 616 
Q 2728 306 2450 153 
Q 2172 0 1784 0 
Q 1141 0 747 490 
Q 353 981 353 1791 
Q 353 2603 747 3093 
Q 1141 3584 1784 3584 
Q 2172 3584 2450 3431 
Q 2728 3278 2906 2969 
L 2906 3500 
L 3481 3500 
L 3481 434 
z
" transform="scale(0.015625)"/>
       <path id="DejaVuSans-6f" d="M 1959 3097 
Q 1497 3097 1228 2736 
Q 959 2375 959 1747 
Q 959 1119 1226 758 
Q 1494 397 1959 397 
Q 2419 397 2687 759 
Q 2956 1122 2956 1747 
Q 2956 2369 2687 2733 
Q 2419 3097 1959 3097 
z
M 1959 3584 
Q 2709 3584 3137 3096 
Q 3566 2609 3566 1747 
Q 3566 888 3137 398 
Q 2709 -91 1959 -91 
Q 1206 -91 779 398 
Q 353 888 353 1747 
Q 353 2609 779 3096 
Q 1206 3584 1959 3584 
z
" transform="scale(0.015625)"/>
       <path id="DejaVuSans-6c" d="M 603 4863 
L 1178 4863 
L 1178 0 
L 603 0 
L 603 4863 
z
" transform="scale(0.015625)"/>
       <path id="DejaVuSans-64" d="M 2906 2969 
L 2906 4863 
L 3481 4863 
L 3481 0 
L 2906 0 
L 2906 525 
Q 2725 213 2448 61 
Q 2172 -91 1784 -91 
Q 1150 -91 751 415 
Q 353 922 353 1747 
Q 353 2572 751 3078 
Q 1150 3584 1784 3584 
Q 2172 3584 2448 3432 
Q 2725 3281 2906 2969 
z
M 947 1747 
Q 947 1113 1208 752 
Q 1469 391 1925 391 
Q 2381 391 2643 752 
Q 2906 1113 2906 1747 
Q 2906 2381 2643 2742 
Q 2381 3103 1925 3103 
Q 1469 3103 1208 2742 
Q 947 2381 947 1747 
z
" transform="scale(0.015625)"/>
       <path id="DejaVuSans-20" transform="scale(0.015625)"/>
       <path id="DejaVuSans-70" d="M 1159 525 
L 1159 -1331 
L 581 -1331 
L 581 3500 
L 1159 3500 
L 1159 2969 
Q 1341 3281 1617 3432 
Q 1894 3584 2278 3584 
Q 2916 3584 3314 3078 
Q 3713 2572 3713 1747 
Q 3713 922 3314 415 
Q 2916 -91 2278 -91 
Q 1894 -91 1617 61 
Q 1341 213 1159 525 
z
M 3116 1747 
Q 3116 2381 2855 2742 
Q 2594 3103 2138 3103 
Q 1681 3103 1420 2742 
Q 1159 2381 1159 1747 
Q 1159 1113 1420 752 
Q 1681 391 2138 391 
Q 2594 391 2855 752 
Q 3116 1113 3116 1747 
z
" transform="scale(0.015625)"/>
       <path id="DejaVuSans-68" d="M 3513 2113 
L 3513 0 
L 2938 0 
L 2938 2094 
Q 2938 2591 2744 2837 
Q 2550 3084 2163 3084 
Q 1697 3084 1428 2787 
Q 1159 2491 1159 1978 
L 1159 0 
L 581 0 
L 581 4863 
L 1159 4863 
L 1159 2956 
Q 1366 3272 1645 3428 
Q 1925 3584 2291 3584 
Q 2894 3584 3203 3211 
Q 3513 2838 3513 2113 
z
" transform="scale(0.015625)"/>
       <path id="DejaVuSans-6e" d="M 3513 2113 
L 3513 0 
L 2938 0 
L 2938 2094 
Q 2938 2591 2744 2837 
Q 2550 3084 2163 3084 
Q 1697 3084 1428 2787 
Q 1159 2491 1159 1978 
L 1159 0 
L 581 0 
L 581 3500 
L 1159 3500 
L 1159 2956 
Q 1366 3272 1645 3428 
Q 1925 3584 2291 3584 
Q 2894 3584 3203 3211 
Q 3513 2838 3513 2113 
z
" transform="scale(0.015625)"/>
       <path id="DejaVuSans-65" d="M 3597 1894 
L 3597 1613 
L 953 1613 
Q 991 1019 1311 708 
Q 1631 397 2203 397 
Q 2534 397 2845 478 
Q 3156 559 3463 722 
L 3463 178 
Q 3153 47 2828 -22 
Q 2503 -91 2169 -91 
Q 1331 -91 842 396 
Q 353 884 353 1716 
Q 353 2575 817 3079 
Q 1281 3584 2069 3584 
Q 2775 3584 3186 3129 
Q 3597 2675 3597 1894 
z
M 3022 2063 
Q 3016 2534 2758 2815 
Q 2500 3097 2075 3097 
Q 1594 3097 1305 2825 
Q 1016 2553 972 2059 
L 3022 2063 
z
" transform="scale(0.015625)"/>
       <path id="DejaVuSans-73" d="M 2834 3397 
L 2834 2853 
Q 2591 2978 2328 3040 
Q 2066 3103 1784 3103 
Q 1356 3103 1142 2972 
Q 928 2841 928 2578 
Q 928 2378 1081 2264 
Q 1234 2150 1697 2047 
L 1894 2003 
Q 2506 1872 2764 1633 
Q 3022 1394 3022 966 
Q 3022 478 2636 193 
Q 2250 -91 1575 -91 
Q 1294 -91 989 -36 
Q 684 19 347 128 
L 347 722 
Q 666 556 975 473 
Q 1284 391 1588 391 
Q 1994 391 2212 530 
Q 2431 669 2431 922 
Q 2431 1156 2273 1281 
Q 2116 1406 1581 1522 
L 1381 1569 
Q 847 1681 609 1914 
Q 372 2147 372 2553 
Q 372 3047 722 3315 
Q 1072 3584 1716 3584 
Q 2034 3584 2315 3537 
Q 2597 3491 2834 3397 
z
" transform="scale(0.015625)"/>
      </defs>
      <use xlink:href="#DejaVuSans-67"/>
      <use xlink:href="#DejaVuSans-6f" transform="translate(63.476562 0)"/>
      <use xlink:href="#DejaVuSans-6c" transform="translate(124.658203 0)"/>
      <use xlink:href="#DejaVuSans-64" transform="translate(152.441406 0)"/>
      <use xlink:href="#DejaVuSans-20" transform="translate(215.917969 0)"/>
      <use xlink:href="#DejaVuSans-70" transform="translate(247.705078 0)"/>
      <use xlink:href="#DejaVuSans-68" transform="translate(311.181641 0)"/>
      <use xlink:href="#DejaVuSans-6f" transform="translate(374.560547 0)"/>
      <use xlink:href="#DejaVuSans-6e" transform="translate(435.742188 0)"/>
      <use xlink:href="#DejaVuSans-65" transform="translate(499.121094 0)"/>
      <use xlink:href="#DejaVuSans-73" transform="translate(560.644531 0)"/>
     </g>
    </g>
   </g>
   <g id="patch_25">
    <path d="M 16.678365 70.071635 
L 716.99976 70.071635 
" style="fill: none; stroke: #000000; stroke-width: 0.8; stroke-linejoin: miter; stroke-linecap: square"/>
   </g>
   <g id="text_2">
    <!-- SIL -->
    <g transform="translate(52.795534 39.295313) scale(0.1 -0.1)">
     <defs>
      <path id="DejaVuSans-53" d="M 3425 4513 
L 3425 3897 
Q 3066 4069 2747 4153 
Q 2428 4238 2131 4238 
Q 1616 4238 1336 4038 
Q 1056 3838 1056 3469 
Q 1056 3159 1242 3001 
Q 1428 2844 1947 2747 
L 2328 2669 
Q 3034 2534 3370 2195 
Q 3706 1856 3706 1288 
Q 3706 609 3251 259 
Q 2797 -91 1919 -91 
Q 1588 -91 1214 -16 
Q 841 59 441 206 
L 441 856 
Q 825 641 1194 531 
Q 1563 422 1919 422 
Q 2459 422 2753 634 
Q 3047 847 3047 1241 
Q 3047 1584 2836 1778 
Q 2625 1972 2144 2069 
L 1759 2144 
Q 1053 2284 737 2584 
Q 422 2884 422 3419 
Q 422 4038 858 4394 
Q 1294 4750 2059 4750 
Q 2388 4750 2728 4690 
Q 3069 4631 3425 4513 
z
" transform="scale(0.015625)"/>
      <path id="DejaVuSans-49" d="M 628 4666 
L 1259 4666 
L 1259 0 
L 628 0 
L 628 4666 
z
" transform="scale(0.015625)"/>
      <path id="DejaVuSans-4c" d="M 628 4666 
L 1259 4666 
L 1259 531 
L 3531 531 
L 3531 0 
L 628 0 
L 628 4666 
z
" transform="scale(0.015625)"/>
     </defs>
     <use xlink:href="#DejaVuSans-53"/>
     <use xlink:href="#DejaVuSans-49" transform="translate(63.476562 0)"/>
     <use xlink:href="#DejaVuSans-4c" transform="translate(92.96875 0)"/>
    </g>
   </g>
   <g id="text_3">
    <!-- ʌ -->
    <g transform="translate(109.534106 39.295313) scale(0.1 -0.1)">
     <defs>
      <path id="DejaVuSans-28c" d="M 191 0 
L 1503 3500 
L 2284 3500 
L 3597 0 
L 2988 0 
L 1894 2938 
L 800 0 
L 191 0 
z
" transform="scale(0.015625)"/>
     </defs>
     <use xlink:href="#DejaVuSans-28c"/>
    </g>
   </g>
   <g id="text_4">
    <!-- n -->
    <g transform="translate(123.261475 39.295313) scale(0.1 -0.1)">
     <use xlink:href="#DejaVuSans-6e"/>
    </g>
   </g>
   <g id="text_5">
    <!-- d -->
    <g transform="translate(133.708565 39.295313) scale(0.1 -0.1)">
     <use xlink:href="#DejaVuSans-64"/>
    </g>
   </g>
   <g id="text_6">
    <!-- h -->
    <g transform="translate(145.908685 39.295313) scale(0.1 -0.1)">
     <use xlink:href="#DejaVuSans-68"/>
    </g>
   </g>
   <g id="text_7">
    <!-- ɪ -->
    <g transform="translate(164.640552 39.295313) scale(0.1 -0.1)">
     <defs>
      <path id="DejaVuSans-26a" d="M 363 2988 
L 363 3500 
L 2013 3500 
L 2013 2988 
L 1488 2988 
L 1488 513 
L 2013 513 
L 2013 0 
L 363 0 
L 363 513 
L 913 513 
L 913 2988 
L 363 2988 
z
" transform="scale(0.015625)"/>
     </defs>
     <use xlink:href="#DejaVuSans-26a"/>
    </g>
   </g>
   <g id="text_8">
    <!-- z -->
    <g transform="translate(184.779262 39.295313) scale(0.1 -0.1)">
     <defs>
      <path id="DejaVuSans-7a" d="M 353 3500 
L 3084 3500 
L 3084 2975 
L 922 459 
L 3084 459 
L 3084 0 
L 275 0 
L 275 525 
L 2438 3041 
L 353 3041 
L 353 3500 
z
" transform="scale(0.015625)"/>
     </defs>
     <use xlink:href="#DejaVuSans-7a"/>
    </g>
   </g>
   <g id="text_9">
    <!-- w -->
    <g transform="translate(212.93 39.295313) scale(0.1 -0.1)">
     <defs>
      <path id="DejaVuSans-77" d="M 269 3500 
L 844 3500 
L 1563 769 
L 2278 3500 
L 2956 3500 
L 3675 769 
L 4391 3500 
L 4966 3500 
L 4050 0 
L 3372 0 
L 2619 2869 
L 1863 0 
L 1184 0 
L 269 3500 
z
" transform="scale(0.015625)"/>
     </defs>
     <use xlink:href="#DejaVuSans-77"/>
    </g>
   </g>
   <g id="text_10">
    <!-- aɪ -->
    <g transform="translate(252.165327 39.295313) scale(0.1 -0.1)">
     <defs>
      <path id="DejaVuSans-61" d="M 2194 1759 
Q 1497 1759 1228 1600 
Q 959 1441 959 1056 
Q 959 750 1161 570 
Q 1363 391 1709 391 
Q 2188 391 2477 730 
Q 2766 1069 2766 1631 
L 2766 1759 
L 2194 1759 
z
M 3341 1997 
L 3341 0 
L 2766 0 
L 2766 531 
Q 2569 213 2275 61 
Q 1981 -91 1556 -91 
Q 1019 -91 701 211 
Q 384 513 384 1019 
Q 384 1609 779 1909 
Q 1175 2209 1959 2209 
L 2766 2209 
L 2766 2266 
Q 2766 2663 2505 2880 
Q 2244 3097 1772 3097 
Q 1472 3097 1187 3025 
Q 903 2953 641 2809 
L 641 3341 
Q 956 3463 1253 3523 
Q 1550 3584 1831 3584 
Q 2591 3584 2966 3190 
Q 3341 2797 3341 1997 
z
" transform="scale(0.015625)"/>
     </defs>
     <use xlink:href="#DejaVuSans-61"/>
     <use xlink:href="#DejaVuSans-26a" transform="translate(61.279297 0)"/>
    </g>
   </g>
   <g id="text_11">
    <!-- f -->
    <g transform="translate(286.68472 39.295313) scale(0.1 -0.1)">
     <defs>
      <path id="DejaVuSans-66" d="M 2375 4863 
L 2375 4384 
L 1825 4384 
Q 1516 4384 1395 4259 
Q 1275 4134 1275 3809 
L 1275 3500 
L 2222 3500 
L 2222 3053 
L 1275 3053 
L 1275 0 
L 697 0 
L 697 3053 
L 147 3053 
L 147 3500 
L 697 3500 
L 697 3744 
Q 697 4328 969 4595 
Q 1241 4863 1831 4863 
L 2375 4863 
z
" transform="scale(0.015625)"/>
     </defs>
     <use xlink:href="#DejaVuSans-66"/>
    </g>
   </g>
   <g id="text_12">
    <!-- h -->
    <g transform="translate(313.149615 39.295313) scale(0.1 -0.1)">
     <use xlink:href="#DejaVuSans-68"/>
    </g>
   </g>
   <g id="text_13">
    <!-- æ -->
    <g transform="translate(334.056199 39.295313) scale(0.1 -0.1)">
     <defs>
      <path id="DejaVuSans-e6" d="M 5369 2063 
Q 5366 2534 5108 2815 
Q 4850 3097 4422 3097 
Q 3944 3097 3655 2825 
Q 3366 2553 3322 2059 
L 5369 2063 
z
M 3109 3009 
Q 3341 3291 3672 3437 
Q 4003 3584 4416 3584 
Q 5122 3584 5534 3129 
Q 5947 2675 5947 1894 
L 5947 1613 
L 3303 1613 
Q 3341 1016 3659 703 
Q 3978 391 4550 391 
Q 4875 391 5187 473 
Q 5500 556 5813 722 
L 5813 178 
Q 5500 47 5175 -22 
Q 4850 -91 4519 -91 
Q 3997 -91 3609 98 
Q 3222 288 2981 659 
Q 2753 284 2415 96 
Q 2078 -91 1631 -91 
Q 1041 -91 712 201 
Q 384 494 384 1019 
Q 384 1609 779 1909 
Q 1175 2209 1959 2209 
L 2766 2209 
L 2766 2266 
Q 2766 2663 2505 2880 
Q 2244 3097 1772 3097 
Q 1472 3097 1187 3025 
Q 903 2953 641 2809 
L 641 3341 
Q 956 3463 1253 3523 
Q 1550 3584 1831 3584 
Q 2275 3584 2608 3434 
Q 2941 3284 3109 3009 
z
M 2194 1759 
Q 1497 1759 1228 1600 
Q 959 1441 959 1056 
Q 959 750 1161 570 
Q 1363 391 1709 391 
Q 2188 391 2477 730 
Q 2766 1069 2766 1631 
L 2766 1759 
L 2194 1759 
z
" transform="scale(0.015625)"/>
     </defs>
     <use xlink:href="#DejaVuSans-e6"/>
    </g>
   </g>
   <g id="text_14">
    <!-- d -->
    <g transform="translate(347.986007 39.295313) scale(0.1 -0.1)">
     <use xlink:href="#DejaVuSans-64"/>
    </g>
   </g>
   <g id="text_15">
    <!-- ʌ -->
    <g transform="translate(363.879688 39.295313) scale(0.1 -0.1)">
     <use xlink:href="#DejaVuSans-28c"/>
    </g>
   </g>
   <g id="text_16">
    <!-- b -->
    <g transform="translate(384.56996 39.295313) scale(0.1 -0.1)">
     <defs>
      <path id="DejaVuSans-62" d="M 3116 1747 
Q 3116 2381 2855 2742 
Q 2594 3103 2138 3103 
Q 1681 3103 1420 2742 
Q 1159 2381 1159 1747 
Q 1159 1113 1420 752 
Q 1681 391 2138 391 
Q 2594 391 2855 752 
Q 3116 1113 3116 1747 
z
M 1159 2969 
Q 1341 3281 1617 3432 
Q 1894 3584 2278 3584 
Q 2916 3584 3314 3078 
Q 3713 2572 3713 1747 
Q 3713 922 3314 415 
Q 2916 -91 2278 -91 
Q 1894 -91 1617 61 
Q 1341 213 1159 525 
L 1159 0 
L 581 0 
L 581 4863 
L 1159 4863 
L 1159 2969 
z
" transform="scale(0.015625)"/>
     </defs>
     <use xlink:href="#DejaVuSans-62"/>
    </g>
   </g>
   <g id="text_17">
    <!-- eɪ -->
    <g transform="translate(422.877943 39.295313) scale(0.1 -0.1)">
     <use xlink:href="#DejaVuSans-65"/>
     <use xlink:href="#DejaVuSans-26a" transform="translate(61.523438 0)"/>
    </g>
   </g>
   <g id="text_18">
    <!-- b -->
    <g transform="translate(461.222053 39.295313) scale(0.1 -0.1)">
     <use xlink:href="#DejaVuSans-62"/>
    </g>
   </g>
   <g id="text_19">
    <!-- iː -->
    <g transform="translate(482.227951 39.295313) scale(0.1 -0.1)">
     <defs>
      <path id="DejaVuSans-69" d="M 603 3500 
L 1178 3500 
L 1178 0 
L 603 0 
L 603 3500 
z
M 603 4863 
L 1178 4863 
L 1178 4134 
L 603 4134 
L 603 4863 
z
" transform="scale(0.015625)"/>
      <path id="DejaVuSans-2d0" d="M 903 2278 
L 347 3309 
L 1463 3309 
L 903 2278 
z
M 903 1031 
L 1463 0 
L 347 0 
L 903 1031 
z
" transform="scale(0.015625)"/>
     </defs>
     <use xlink:href="#DejaVuSans-69"/>
     <use xlink:href="#DejaVuSans-2d0" transform="translate(27.783203 0)"/>
    </g>
   </g>
   <g id="text_20">
    <!-- h -->
    <g transform="translate(513.490312 39.295313) scale(0.1 -0.1)">
     <use xlink:href="#DejaVuSans-68"/>
    </g>
   </g>
   <g id="text_21">
    <!-- iː -->
    <g transform="translate(546.685392 39.295313) scale(0.1 -0.1)">
     <use xlink:href="#DejaVuSans-69"/>
     <use xlink:href="#DejaVuSans-2d0" transform="translate(27.783203 0)"/>
    </g>
   </g>
   <g id="text_22">
    <!-- ɹ -->
    <g transform="translate(605.177587 39.295313) scale(0.1 -0.1)">
     <defs>
      <path id="DejaVuSans-279" d="M 1472 544 
Q 1116 -84 294 -84 
Q 178 -84 3 -53 
L 0 538 
Q 188 428 463 428 
Q 950 428 1211 745 
Q 1472 1063 1472 1656 
L 1472 3500 
L 2050 3500 
L 2050 0 
L 1472 0 
L 1472 544 
z
" transform="scale(0.015625)"/>
     </defs>
     <use xlink:href="#DejaVuSans-279"/>
    </g>
   </g>
   <g id="text_23">
    <!-- SIL -->
    <g transform="translate(676.464836 39.295313) scale(0.1 -0.1)">
     <use xlink:href="#DejaVuSans-53"/>
     <use xlink:href="#DejaVuSans-49" transform="translate(63.476562 0)"/>
     <use xlink:href="#DejaVuSans-4c" transform="translate(92.96875 0)"/>
    </g>
   </g>
  </g>
  <g id="axes_2">
   <g id="patch_26">
    <path d="M 16.678365 146.64351 
L 716.99976 146.64351 
L 716.99976 79.572115 
L 16.678365 79.572115 
z
" style="fill: #ffffff"/>
   </g>
   <g id="patch_27">
    <path d="M 16.678365 146.64351 
L 100.29883 146.64351 
L 100.29883 79.572115 
L 16.678365 79.572115 
z
" clip-path="url(#p746d23fd1d)" style="fill: #2ca02c; opacity: 0.4; stroke: #2ca02c; stroke-linejoin: miter"/>
   </g>
   <g id="patch_28">
    <path d="M 100.29883 146.64351 
L 128.172318 146.64351 
L 128.172318 79.572115 
L 100.29883 79.572115 
z
" clip-path="url(#p746d23fd1d)" style="fill: #2ca02c; opacity: 0.4; stroke: #2ca02c; stroke-linejoin: miter"/>
   </g>
   <g id="patch_29">
    <path d="M 128.172318 146.64351 
L 135.140691 146.64351 
L 135.140691 79.572115 
L 128.172318 79.572115 
z
" clip-path="url(#p746d23fd1d)" style="fill: #2ca02c; opacity: 0.4; stroke: #2ca02c; stroke-linejoin: miter"/>
   </g>
   <g id="patch_30">
    <path d="M 135.140691 146.64351 
L 163.014179 146.64351 
L 163.014179 79.572115 
L 135.140691 79.572115 
z
" clip-path="url(#p746d23fd1d)" style="fill: #2ca02c; opacity: 0.4; stroke: #2ca02c; stroke-linejoin: miter"/>
   </g>
   <g id="patch_31">
    <path d="M 163.014179 146.64351 
L 169.982551 146.64351 
L 169.982551 79.572115 
L 163.014179 79.572115 
z
" clip-path="url(#p746d23fd1d)" style="fill: #2ca02c; opacity: 0.4; stroke: #2ca02c; stroke-linejoin: miter"/>
   </g>
   <g id="patch_32">
    <path d="M 169.982551 146.64351 
L 190.887667 146.64351 
L 190.887667 79.572115 
L 169.982551 79.572115 
z
" clip-path="url(#p746d23fd1d)" style="fill: #2ca02c; opacity: 0.4; stroke: #2ca02c; stroke-linejoin: miter"/>
   </g>
   <g id="patch_33">
    <path d="M 190.887667 146.64351 
L 232.6979 146.64351 
L 232.6979 79.572115 
L 190.887667 79.572115 
z
" clip-path="url(#p746d23fd1d)" style="fill: #2ca02c; opacity: 0.4; stroke: #2ca02c; stroke-linejoin: miter"/>
   </g>
   <g id="patch_34">
    <path d="M 232.6979 146.64351 
L 281.476504 146.64351 
L 281.476504 79.572115 
L 232.6979 79.572115 
z
" clip-path="url(#p746d23fd1d)" style="fill: #2ca02c; opacity: 0.4; stroke: #2ca02c; stroke-linejoin: miter"/>
   </g>
   <g id="patch_35">
    <path d="M 281.476504 146.64351 
L 288.444876 146.64351 
L 288.444876 79.572115 
L 281.476504 79.572115 
z
" clip-path="url(#p746d23fd1d)" style="fill: #2ca02c; opacity: 0.4; stroke: #2ca02c; stroke-linejoin: miter"/>
   </g>
   <g id="patch_36">
    <path d="M 288.444876 146.64351 
L 295.413249 146.64351 
L 295.413249 79.572115 
L 288.444876 79.572115 
z
" clip-path="url(#p746d23fd1d)" style="fill: #2ca02c; opacity: 0.4; stroke: #2ca02c; stroke-linejoin: miter"/>
   </g>
   <g id="patch_37">
    <path d="M 295.413249 146.64351 
L 302.381621 146.64351 
L 302.381621 79.572115 
L 295.413249 79.572115 
z
" clip-path="url(#p746d23fd1d)" style="fill: #2ca02c; opacity: 0.4; stroke: #2ca02c; stroke-linejoin: miter"/>
   </g>
   <g id="patch_38">
    <path d="M 302.381621 146.64351 
L 337.223481 146.64351 
L 337.223481 79.572115 
L 302.381621 79.572115 
z
" clip-path="url(#p746d23fd1d)" style="fill: #2ca02c; opacity: 0.4; stroke: #2ca02c; stroke-linejoin: miter"/>
   </g>
   <g id="patch_39">
    <path d="M 337.223481 146.64351 
L 344.191853 146.64351 
L 344.191853 79.572115 
L 337.223481 79.572115 
z
" clip-path="url(#p746d23fd1d)" style="fill: #2ca02c; opacity: 0.4; stroke: #2ca02c; stroke-linejoin: miter"/>
   </g>
   <g id="patch_40">
    <path d="M 344.191853 146.64351 
L 358.128597 146.64351 
L 358.128597 79.572115 
L 344.191853 79.572115 
z
" clip-path="url(#p746d23fd1d)" style="fill: #2ca02c; opacity: 0.4; stroke: #2ca02c; stroke-linejoin: miter"/>
   </g>
   <g id="patch_41">
    <path d="M 358.128597 146.64351 
L 379.033714 146.64351 
L 379.033714 79.572115 
L 358.128597 79.572115 
z
" clip-path="url(#p746d23fd1d)" style="fill: #2ca02c; opacity: 0.4; stroke: #2ca02c; stroke-linejoin: miter"/>
   </g>
   <g id="patch_42">
    <path d="M 379.033714 146.64351 
L 406.907202 146.64351 
L 406.907202 79.572115 
L 379.033714 79.572115 
z
" clip-path="url(#p746d23fd1d)" style="fill: #2ca02c; opacity: 0.4; stroke: #2ca02c; stroke-linejoin: miter"/>
   </g>
   <g id="patch_43">
    <path d="M 406.907202 146.64351 
L 448.717435 146.64351 
L 448.717435 79.572115 
L 406.907202 79.572115 
z
" clip-path="url(#p746d23fd1d)" style="fill: #2ca02c; opacity: 0.4; stroke: #2ca02c; stroke-linejoin: miter"/>
   </g>
   <g id="patch_44">
    <path d="M 448.717435 146.64351 
L 455.685807 146.64351 
L 455.685807 79.572115 
L 448.717435 79.572115 
z
" clip-path="url(#p746d23fd1d)" style="fill: #2ca02c; opacity: 0.4; stroke: #2ca02c; stroke-linejoin: miter"/>
   </g>
   <g id="patch_45">
    <path d="M 455.685807 146.64351 
L 469.622551 146.64351 
L 469.622551 79.572115 
L 455.685807 79.572115 
z
" clip-path="url(#p746d23fd1d)" style="fill: #2ca02c; opacity: 0.4; stroke: #2ca02c; stroke-linejoin: miter"/>
   </g>
   <g id="patch_46">
    <path d="M 469.622551 146.64351 
L 490.527667 146.64351 
L 490.527667 79.572115 
L 469.622551 79.572115 
z
" clip-path="url(#p746d23fd1d)" style="fill: #2ca02c; opacity: 0.4; stroke: #2ca02c; stroke-linejoin: miter"/>
   </g>
   <g id="patch_47">
    <path d="M 490.527667 146.64351 
L 539.306272 146.64351 
L 539.306272 79.572115 
L 490.527667 79.572115 
z
" clip-path="url(#p746d23fd1d)" style="fill: #2ca02c; opacity: 0.4; stroke: #2ca02c; stroke-linejoin: miter"/>
   </g>
   <g id="patch_48">
    <path d="M 539.306272 146.64351 
L 560.211388 146.64351 
L 560.211388 79.572115 
L 539.306272 79.572115 
z
" clip-path="url(#p746d23fd1d)" style="fill: #2ca02c; opacity: 0.4; stroke: #2ca02c; stroke-linejoin: miter"/>
   </g>
   <g id="patch_49">
    <path d="M 560.211388 146.64351 
L 574.148132 146.64351 
L 574.148132 79.572115 
L 560.211388 79.572115 
z
" clip-path="url(#p746d23fd1d)" style="fill: #2ca02c; opacity: 0.4; stroke: #2ca02c; stroke-linejoin: miter"/>
   </g>
   <g id="patch_50">
    <path d="M 574.148132 146.64351 
L 622.926737 146.64351 
L 622.926737 79.572115 
L 574.148132 79.572115 
z
" clip-path="url(#p746d23fd1d)" style="fill: #2ca02c; opacity: 0.4; stroke: #2ca02c; stroke-linejoin: miter"/>
   </g>
   <g id="patch_51">
    <path d="M 622.926737 146.64351 
L 716.99976 146.64351 
L 716.99976 79.572115 
L 622.926737 79.572115 
z
" clip-path="url(#p746d23fd1d)" style="fill: #2ca02c; opacity: 0.4; stroke: #2ca02c; stroke-linejoin: miter"/>
   </g>
   <g id="matplotlib.axis_3">
    <g id="xtick_9">
     <g id="line2d_9">
      <g>
       <use xlink:href="#m2c2c5a338d" x="34.099295" y="146.64351" style="stroke: #000000; stroke-width: 0.8"/>
      </g>
     </g>
     <g id="text_24">
      <!-- 0.25 -->
      <g transform="translate(22.966483 161.241948) scale(0.1 -0.1)">
       <defs>
        <path id="DejaVuSans-30" d="M 2034 4250 
Q 1547 4250 1301 3770 
Q 1056 3291 1056 2328 
Q 1056 1369 1301 889 
Q 1547 409 2034 409 
Q 2525 409 2770 889 
Q 3016 1369 3016 2328 
Q 3016 3291 2770 3770 
Q 2525 4250 2034 4250 
z
M 2034 4750 
Q 2819 4750 3233 4129 
Q 3647 3509 3647 2328 
Q 3647 1150 3233 529 
Q 2819 -91 2034 -91 
Q 1250 -91 836 529 
Q 422 1150 422 2328 
Q 422 3509 836 4129 
Q 1250 4750 2034 4750 
z
" transform="scale(0.015625)"/>
        <path id="DejaVuSans-2e" d="M 684 794 
L 1344 794 
L 1344 0 
L 684 0 
L 684 794 
z
" transform="scale(0.015625)"/>
        <path id="DejaVuSans-32" d="M 1228 531 
L 3431 531 
L 3431 0 
L 469 0 
L 469 531 
Q 828 903 1448 1529 
Q 2069 2156 2228 2338 
Q 2531 2678 2651 2914 
Q 2772 3150 2772 3378 
Q 2772 3750 2511 3984 
Q 2250 4219 1831 4219 
Q 1534 4219 1204 4116 
Q 875 4013 500 3803 
L 500 4441 
Q 881 4594 1212 4672 
Q 1544 4750 1819 4750 
Q 2544 4750 2975 4387 
Q 3406 4025 3406 3419 
Q 3406 3131 3298 2873 
Q 3191 2616 2906 2266 
Q 2828 2175 2409 1742 
Q 1991 1309 1228 531 
z
" transform="scale(0.015625)"/>
        <path id="DejaVuSans-35" d="M 691 4666 
L 3169 4666 
L 3169 4134 
L 1269 4134 
L 1269 2991 
Q 1406 3038 1543 3061 
Q 1681 3084 1819 3084 
Q 2600 3084 3056 2656 
Q 3513 2228 3513 1497 
Q 3513 744 3044 326 
Q 2575 -91 1722 -91 
Q 1428 -91 1123 -41 
Q 819 9 494 109 
L 494 744 
Q 775 591 1075 516 
Q 1375 441 1709 441 
Q 2250 441 2565 725 
Q 2881 1009 2881 1497 
Q 2881 1984 2565 2268 
Q 2250 2553 1709 2553 
Q 1456 2553 1204 2497 
Q 953 2441 691 2322 
L 691 4666 
z
" transform="scale(0.015625)"/>
       </defs>
       <use xlink:href="#DejaVuSans-30"/>
       <use xlink:href="#DejaVuSans-2e" transform="translate(63.623047 0)"/>
       <use xlink:href="#DejaVuSans-32" transform="translate(95.410156 0)"/>
       <use xlink:href="#DejaVuSans-35" transform="translate(159.033203 0)"/>
      </g>
     </g>
    </g>
    <g id="xtick_10">
     <g id="line2d_10">
      <g>
       <use xlink:href="#m2c2c5a338d" x="121.203946" y="146.64351" style="stroke: #000000; stroke-width: 0.8"/>
      </g>
     </g>
     <g id="text_25">
      <!-- 0.50 -->
      <g transform="translate(110.071134 161.241948) scale(0.1 -0.1)">
       <use xlink:href="#DejaVuSans-30"/>
       <use xlink:href="#DejaVuSans-2e" transform="translate(63.623047 0)"/>
       <use xlink:href="#DejaVuSans-35" transform="translate(95.410156 0)"/>
       <use xlink:href="#DejaVuSans-30" transform="translate(159.033203 0)"/>
      </g>
     </g>
    </g>
    <g id="xtick_11">
     <g id="line2d_11">
      <g>
       <use xlink:href="#m2c2c5a338d" x="208.308597" y="146.64351" style="stroke: #000000; stroke-width: 0.8"/>
      </g>
     </g>
     <g id="text_26">
      <!-- 0.75 -->
      <g transform="translate(197.175785 161.241948) scale(0.1 -0.1)">
       <defs>
        <path id="DejaVuSans-37" d="M 525 4666 
L 3525 4666 
L 3525 4397 
L 1831 0 
L 1172 0 
L 2766 4134 
L 525 4134 
L 525 4666 
z
" transform="scale(0.015625)"/>
       </defs>
       <use xlink:href="#DejaVuSans-30"/>
       <use xlink:href="#DejaVuSans-2e" transform="translate(63.623047 0)"/>
       <use xlink:href="#DejaVuSans-37" transform="translate(95.410156 0)"/>
       <use xlink:href="#DejaVuSans-35" transform="translate(159.033203 0)"/>
      </g>
     </g>
    </g>
    <g id="xtick_12">
     <g id="line2d_12">
      <g>
       <use xlink:href="#m2c2c5a338d" x="295.413249" y="146.64351" style="stroke: #000000; stroke-width: 0.8"/>
      </g>
     </g>
     <g id="text_27">
      <!-- 1.00 -->
      <g transform="translate(284.280436 161.241948) scale(0.1 -0.1)">
       <defs>
        <path id="DejaVuSans-31" d="M 794 531 
L 1825 531 
L 1825 4091 
L 703 3866 
L 703 4441 
L 1819 4666 
L 2450 4666 
L 2450 531 
L 3481 531 
L 3481 0 
L 794 0 
L 794 531 
z
" transform="scale(0.015625)"/>
       </defs>
       <use xlink:href="#DejaVuSans-31"/>
       <use xlink:href="#DejaVuSans-2e" transform="translate(63.623047 0)"/>
       <use xlink:href="#DejaVuSans-30" transform="translate(95.410156 0)"/>
       <use xlink:href="#DejaVuSans-30" transform="translate(159.033203 0)"/>
      </g>
     </g>
    </g>
    <g id="xtick_13">
     <g id="line2d_13">
      <g>
       <use xlink:href="#m2c2c5a338d" x="382.5179" y="146.64351" style="stroke: #000000; stroke-width: 0.8"/>
      </g>
     </g>
     <g id="text_28">
      <!-- 1.25 -->
      <g transform="translate(371.385087 161.241948) scale(0.1 -0.1)">
       <use xlink:href="#DejaVuSans-31"/>
       <use xlink:href="#DejaVuSans-2e" transform="translate(63.623047 0)"/>
       <use xlink:href="#DejaVuSans-32" transform="translate(95.410156 0)"/>
       <use xlink:href="#DejaVuSans-35" transform="translate(159.033203 0)"/>
      </g>
     </g>
    </g>
    <g id="xtick_14">
     <g id="line2d_14">
      <g>
       <use xlink:href="#m2c2c5a338d" x="469.622551" y="146.64351" style="stroke: #000000; stroke-width: 0.8"/>
      </g>
     </g>
     <g id="text_29">
      <!-- 1.50 -->
      <g transform="translate(458.489738 161.241948) scale(0.1 -0.1)">
       <use xlink:href="#DejaVuSans-31"/>
       <use xlink:href="#DejaVuSans-2e" transform="translate(63.623047 0)"/>
       <use xlink:href="#DejaVuSans-35" transform="translate(95.410156 0)"/>
       <use xlink:href="#DejaVuSans-30" transform="translate(159.033203 0)"/>
      </g>
     </g>
    </g>
    <g id="xtick_15">
     <g id="line2d_15">
      <g>
       <use xlink:href="#m2c2c5a338d" x="556.727202" y="146.64351" style="stroke: #000000; stroke-width: 0.8"/>
      </g>
     </g>
     <g id="text_30">
      <!-- 1.75 -->
      <g transform="translate(545.594389 161.241948) scale(0.1 -0.1)">
       <use xlink:href="#DejaVuSans-31"/>
       <use xlink:href="#DejaVuSans-2e" transform="translate(63.623047 0)"/>
       <use xlink:href="#DejaVuSans-37" transform="translate(95.410156 0)"/>
       <use xlink:href="#DejaVuSans-35" transform="translate(159.033203 0)"/>
      </g>
     </g>
    </g>
    <g id="xtick_16">
     <g id="line2d_16">
      <g>
       <use xlink:href="#m2c2c5a338d" x="643.831853" y="146.64351" style="stroke: #000000; stroke-width: 0.8"/>
      </g>
     </g>
     <g id="text_31">
      <!-- 2.00 -->
      <g transform="translate(632.699041 161.241948) scale(0.1 -0.1)">
       <use xlink:href="#DejaVuSans-32"/>
       <use xlink:href="#DejaVuSans-2e" transform="translate(63.623047 0)"/>
       <use xlink:href="#DejaVuSans-30" transform="translate(95.410156 0)"/>
       <use xlink:href="#DejaVuSans-30" transform="translate(159.033203 0)"/>
      </g>
     </g>
    </g>
    <g id="text_32">
     <!-- time [s] -->
     <g transform="translate(347.447656 174.920073) scale(0.1 -0.1)">
      <defs>
       <path id="DejaVuSans-74" d="M 1172 4494 
L 1172 3500 
L 2356 3500 
L 2356 3053 
L 1172 3053 
L 1172 1153 
Q 1172 725 1289 603 
Q 1406 481 1766 481 
L 2356 481 
L 2356 0 
L 1766 0 
Q 1100 0 847 248 
Q 594 497 594 1153 
L 594 3053 
L 172 3053 
L 172 3500 
L 594 3500 
L 594 4494 
L 1172 4494 
z
" transform="scale(0.015625)"/>
       <path id="DejaVuSans-6d" d="M 3328 2828 
Q 3544 3216 3844 3400 
Q 4144 3584 4550 3584 
Q 5097 3584 5394 3201 
Q 5691 2819 5691 2113 
L 5691 0 
L 5113 0 
L 5113 2094 
Q 5113 2597 4934 2840 
Q 4756 3084 4391 3084 
Q 3944 3084 3684 2787 
Q 3425 2491 3425 1978 
L 3425 0 
L 2847 0 
L 2847 2094 
Q 2847 2600 2669 2842 
Q 2491 3084 2119 3084 
Q 1678 3084 1418 2786 
Q 1159 2488 1159 1978 
L 1159 0 
L 581 0 
L 581 3500 
L 1159 3500 
L 1159 2956 
Q 1356 3278 1631 3431 
Q 1906 3584 2284 3584 
Q 2666 3584 2933 3390 
Q 3200 3197 3328 2828 
z
" transform="scale(0.015625)"/>
       <path id="DejaVuSans-5b" d="M 550 4863 
L 1875 4863 
L 1875 4416 
L 1125 4416 
L 1125 -397 
L 1875 -397 
L 1875 -844 
L 550 -844 
L 550 4863 
z
" transform="scale(0.015625)"/>
       <path id="DejaVuSans-5d" d="M 1947 4863 
L 1947 -844 
L 622 -844 
L 622 -397 
L 1369 -397 
L 1369 4416 
L 622 4416 
L 622 4863 
L 1947 4863 
z
" transform="scale(0.015625)"/>
      </defs>
      <use xlink:href="#DejaVuSans-74"/>
      <use xlink:href="#DejaVuSans-69" transform="translate(39.208984 0)"/>
      <use xlink:href="#DejaVuSans-6d" transform="translate(66.992188 0)"/>
      <use xlink:href="#DejaVuSans-65" transform="translate(164.404297 0)"/>
      <use xlink:href="#DejaVuSans-20" transform="translate(225.927734 0)"/>
      <use xlink:href="#DejaVuSans-5b" transform="translate(257.714844 0)"/>
      <use xlink:href="#DejaVuSans-73" transform="translate(296.728516 0)"/>
      <use xlink:href="#DejaVuSans-5d" transform="translate(348.828125 0)"/>
     </g>
    </g>
   </g>
   <g id="matplotlib.axis_4">
    <g id="text_33">
     <!-- predictions -->
     <g transform="translate(10.598678 140.796094) rotate(-90) scale(0.1 -0.1)">
      <defs>
       <path id="DejaVuSans-72" d="M 2631 2963 
Q 2534 3019 2420 3045 
Q 2306 3072 2169 3072 
Q 1681 3072 1420 2755 
Q 1159 2438 1159 1844 
L 1159 0 
L 581 0 
L 581 3500 
L 1159 3500 
L 1159 2956 
Q 1341 3275 1631 3429 
Q 1922 3584 2338 3584 
Q 2397 3584 2469 3576 
Q 2541 3569 2628 3553 
L 2631 2963 
z
" transform="scale(0.015625)"/>
       <path id="DejaVuSans-63" d="M 3122 3366 
L 3122 2828 
Q 2878 2963 2633 3030 
Q 2388 3097 2138 3097 
Q 1578 3097 1268 2742 
Q 959 2388 959 1747 
Q 959 1106 1268 751 
Q 1578 397 2138 397 
Q 2388 397 2633 464 
Q 2878 531 3122 666 
L 3122 134 
Q 2881 22 2623 -34 
Q 2366 -91 2075 -91 
Q 1284 -91 818 406 
Q 353 903 353 1747 
Q 353 2603 823 3093 
Q 1294 3584 2113 3584 
Q 2378 3584 2631 3529 
Q 2884 3475 3122 3366 
z
" transform="scale(0.015625)"/>
      </defs>
      <use xlink:href="#DejaVuSans-70"/>
      <use xlink:href="#DejaVuSans-72" transform="translate(63.476562 0)"/>
      <use xlink:href="#DejaVuSans-65" transform="translate(102.339844 0)"/>
      <use xlink:href="#DejaVuSans-64" transform="translate(163.863281 0)"/>
      <use xlink:href="#DejaVuSans-69" transform="translate(227.339844 0)"/>
      <use xlink:href="#DejaVuSans-63" transform="translate(255.123047 0)"/>
      <use xlink:href="#DejaVuSans-74" transform="translate(310.103516 0)"/>
      <use xlink:href="#DejaVuSans-69" transform="translate(349.3125 0)"/>
      <use xlink:href="#DejaVuSans-6f" transform="translate(377.095703 0)"/>
      <use xlink:href="#DejaVuSans-6e" transform="translate(438.277344 0)"/>
      <use xlink:href="#DejaVuSans-73" transform="translate(501.65625 0)"/>
     </g>
    </g>
   </g>
   <g id="patch_52">
    <path d="M 16.678365 146.64351 
L 716.99976 146.64351 
" style="fill: none; stroke: #000000; stroke-width: 0.8; stroke-linejoin: miter; stroke-linecap: square"/>
   </g>
   <g id="text_34">
    <!-- SIL -->
    <g transform="translate(51.053441 115.867188) scale(0.1 -0.1)">
     <use xlink:href="#DejaVuSans-53"/>
     <use xlink:href="#DejaVuSans-49" transform="translate(63.476562 0)"/>
     <use xlink:href="#DejaVuSans-4c" transform="translate(92.96875 0)"/>
    </g>
   </g>
   <g id="text_35">
    <!-- ʌ -->
    <g transform="translate(111.276199 115.867188) scale(0.1 -0.1)">
     <use xlink:href="#DejaVuSans-28c"/>
    </g>
   </g>
   <g id="text_36">
    <!-- n -->
    <g transform="translate(128.487754 115.867188) scale(0.1 -0.1)">
     <use xlink:href="#DejaVuSans-6e"/>
    </g>
   </g>
   <g id="text_37">
    <!-- h -->
    <g transform="translate(145.908685 115.867188) scale(0.1 -0.1)">
     <use xlink:href="#DejaVuSans-68"/>
    </g>
   </g>
   <g id="text_38">
    <!-- ɪ -->
    <g transform="translate(164.640552 115.867188) scale(0.1 -0.1)">
     <use xlink:href="#DejaVuSans-26a"/>
    </g>
   </g>
   <g id="text_39">
    <!-- z -->
    <g transform="translate(177.81089 115.867188) scale(0.1 -0.1)">
     <use xlink:href="#DejaVuSans-7a"/>
    </g>
   </g>
   <g id="text_40">
    <!-- w -->
    <g transform="translate(207.703721 115.867188) scale(0.1 -0.1)">
     <use xlink:href="#DejaVuSans-77"/>
    </g>
   </g>
   <g id="text_41">
    <!-- aɪ -->
    <g transform="translate(252.165327 115.867188) scale(0.1 -0.1)">
     <use xlink:href="#DejaVuSans-61"/>
     <use xlink:href="#DejaVuSans-26a" transform="translate(61.279297 0)"/>
    </g>
   </g>
   <g id="text_42">
    <!-- θ -->
    <g transform="translate(281.901315 115.867188) scale(0.1 -0.1)">
     <defs>
      <path id="DejaVuSans-3b8" d="M 2953 2219 
L 963 2219 
Q 1009 1284 1225 888 
Q 1494 400 1959 400 
Q 2428 400 2688 891 
Q 2916 1322 2953 2219 
z
M 2944 2750 
Q 2856 3638 2688 3950 
Q 2419 4444 1959 4444 
Q 1481 4444 1228 3956 
Q 1028 3563 969 2750 
L 2944 2750 
z
M 1959 4913 
Q 2709 4913 3138 4250 
Q 3566 3591 3566 2422 
Q 3566 1256 3138 594 
Q 2709 -72 1959 -72 
Q 1206 -72 781 594 
Q 353 1256 353 2422 
Q 353 3591 781 4250 
Q 1206 4913 1959 4913 
z
" transform="scale(0.015625)"/>
     </defs>
     <use xlink:href="#DejaVuSans-3b8"/>
    </g>
   </g>
   <g id="text_43">
    <!-- s -->
    <g transform="translate(289.324375 115.867188) scale(0.1 -0.1)">
     <use xlink:href="#DejaVuSans-73"/>
    </g>
   </g>
   <g id="text_44">
    <!-- θ -->
    <g transform="translate(295.83806 115.867188) scale(0.1 -0.1)">
     <use xlink:href="#DejaVuSans-3b8"/>
    </g>
   </g>
   <g id="text_45">
    <!-- h -->
    <g transform="translate(316.633801 115.867188) scale(0.1 -0.1)">
     <use xlink:href="#DejaVuSans-68"/>
    </g>
   </g>
   <g id="text_46">
    <!-- æ -->
    <g transform="translate(335.798292 115.867188) scale(0.1 -0.1)">
     <use xlink:href="#DejaVuSans-e6"/>
    </g>
   </g>
   <g id="text_47">
    <!-- d -->
    <g transform="translate(347.986007 115.867188) scale(0.1 -0.1)">
     <use xlink:href="#DejaVuSans-64"/>
    </g>
   </g>
   <g id="text_48">
    <!-- ʌ -->
    <g transform="translate(365.621781 115.867188) scale(0.1 -0.1)">
     <use xlink:href="#DejaVuSans-28c"/>
    </g>
   </g>
   <g id="text_49">
    <!-- b -->
    <g transform="translate(389.796239 115.867188) scale(0.1 -0.1)">
     <use xlink:href="#DejaVuSans-62"/>
    </g>
   </g>
   <g id="text_50">
    <!-- eɪ -->
    <g transform="translate(422.877943 115.867188) scale(0.1 -0.1)">
     <use xlink:href="#DejaVuSans-65"/>
     <use xlink:href="#DejaVuSans-26a" transform="translate(61.523438 0)"/>
    </g>
   </g>
   <g id="text_51">
    <!-- v -->
    <g transform="translate(449.242246 115.867188) scale(0.1 -0.1)">
     <defs>
      <path id="DejaVuSans-76" d="M 191 3500 
L 800 3500 
L 1894 563 
L 2988 3500 
L 3597 3500 
L 2284 0 
L 1503 0 
L 191 3500 
z
" transform="scale(0.015625)"/>
     </defs>
     <use xlink:href="#DejaVuSans-76"/>
    </g>
   </g>
   <g id="text_52">
    <!-- b -->
    <g transform="translate(459.47996 115.867188) scale(0.1 -0.1)">
     <use xlink:href="#DejaVuSans-62"/>
    </g>
   </g>
   <g id="text_53">
    <!-- iː -->
    <g transform="translate(477.001671 115.867188) scale(0.1 -0.1)">
     <use xlink:href="#DejaVuSans-69"/>
     <use xlink:href="#DejaVuSans-2d0" transform="translate(27.783203 0)"/>
    </g>
   </g>
   <g id="text_54">
    <!-- h -->
    <g transform="translate(511.748219 115.867188) scale(0.1 -0.1)">
     <use xlink:href="#DejaVuSans-68"/>
    </g>
   </g>
   <g id="text_55">
    <!-- ɛ -->
    <g transform="translate(547.056486 115.867188) scale(0.1 -0.1)">
     <defs>
      <path id="DejaVuSans-25b" d="M 1234 1888 
Q 884 1963 697 2166 
Q 509 2366 509 2656 
Q 509 3097 866 3344 
Q 1219 3588 1831 3588 
Q 2069 3588 2334 3550 
Q 2600 3513 2906 3438 
L 2906 2916 
Q 2603 3006 2353 3047 
Q 2100 3088 1878 3088 
Q 1506 3088 1291 2944 
Q 1072 2800 1072 2600 
Q 1072 2381 1284 2241 
Q 1494 2103 1856 2103 
L 2341 2103 
L 2341 1628 
L 1878 1628 
Q 1450 1628 1225 1469 
Q 981 1294 981 1019 
Q 981 738 1244 563 
Q 1509 388 1981 388 
Q 2272 388 2538 444 
Q 2803 503 3025 619 
L 3025 84 
Q 2744 -3 2481 -47 
Q 2216 -91 1966 -91 
Q 1222 -91 819 194 
Q 416 478 416 1019 
Q 416 1356 631 1584 
Q 847 1813 1234 1888 
z
" transform="scale(0.015625)"/>
     </defs>
     <use xlink:href="#DejaVuSans-25b"/>
    </g>
   </g>
   <g id="text_56">
    <!-- ɹ -->
    <g transform="translate(565.109448 115.867188) scale(0.1 -0.1)">
     <use xlink:href="#DejaVuSans-279"/>
    </g>
   </g>
   <g id="text_57">
    <!-- ɝ -->
    <g transform="translate(594.660091 115.867188) scale(0.1 -0.1)">
     <defs>
      <path id="DejaVuSans-25d" d="M 2206 1888 
Q 2594 1813 2809 1584 
Q 3025 1356 3025 1019 
Q 3025 478 2622 193 
Q 2219 -91 1475 -91 
Q 1225 -91 959 -47 
Q 697 -3 416 84 
L 416 619 
Q 638 503 903 444 
Q 1169 388 1459 388 
Q 1931 388 2197 563 
Q 2459 738 2459 1019 
Q 2459 1294 2216 1469 
Q 1991 1628 1563 1628 
L 1100 1628 
L 1100 2103 
L 1584 2103 
Q 1947 2103 2156 2241 
Q 2369 2381 2369 2600 
Q 2369 2800 2150 2944 
Q 1934 3088 1563 3088 
Q 1341 3088 1088 3047 
Q 838 3006 534 2916 
L 534 3438 
Q 841 3513 1106 3550 
Q 1372 3588 1609 3588 
Q 2222 3588 2575 3344 
Q 2872 3138 2919 2806 
L 3656 3225 
L 4231 3225 
L 4231 2763 
Q 4231 2284 4350 2131 
Q 4469 1981 4797 1981 
L 4931 1981 
L 4931 1494 
L 4731 1494 
Q 4184 1494 3913 1794 
Q 3656 2075 3656 2700 
L 2756 2181 
Q 2556 1963 2206 1888 
z
" transform="scale(0.015625)"/>
     </defs>
     <use xlink:href="#DejaVuSans-25d"/>
    </g>
   </g>
   <g id="text_58">
    <!-- SIL -->
    <g transform="translate(662.528092 115.867188) scale(0.1 -0.1)">
     <use xlink:href="#DejaVuSans-53"/>
     <use xlink:href="#DejaVuSans-49" transform="translate(63.476562 0)"/>
     <use xlink:href="#DejaVuSans-4c" transform="translate(92.96875 0)"/>
    </g>
   </g>
  </g>
 </g>
 <defs>
  <clipPath id="p3e7331ec84">
   <rect x="16.678365" y="3.00024" width="700.321395" height="67.071395"/>
  </clipPath>
  <clipPath id="p746d23fd1d">
   <rect x="16.678365" y="79.572115" width="700.321395" height="67.071395"/>
  </clipPath>
 </defs>
</svg>
